# MagicaVoxel @ Ephtracy

# group
o 

# material
mtllib bar.mtl
usemtl palette

# normals
vn -1 0 0
vn 1 0 0
vn 0 0 1
vn 0 0 -1
vn 0 -1 0
vn 0 1 0

# texcoords
vt 0.0214844 0.5
vt 0.0410156 0.5
vt 0.373047 0.5
vt 0.845703 0.5
vt 0.869141 0.5
vt 0.904297 0.5
vt 0.982422 0.5
vt 0.994141 0.5

# verts
v -1.5 0 2
v -1.5 0 0.7
v -1.5 0 -2
v -1.5 0.1 2
v -1.5 0.1 0.7
v -1.5 2.5 0.7
v -1.5 2.5 -2
v -1.4 0.1 1.5
v -1.4 0.1 1.4
v -1.4 0.1 0.9
v -1.4 0.1 0.8
v -1.4 0.2 1.4
v -1.4 0.2 1.3
v -1.4 0.2 1
v -1.4 0.2 0.9
v -1.4 0.3 1.5
v -1.4 0.3 1.3
v -1.4 0.3 1
v -1.4 0.3 0.8
v -0.9 0.1 1.5
v -0.9 0.1 1.4
v -0.9 0.1 0.9
v -0.9 0.1 0.8
v -0.9 0.2 1.5
v -0.9 0.2 1.4
v -0.9 0.2 0.9
v -0.9 0.2 0.8
v -0.7 0.1 0.5
v -0.7 0.1 0.4
v -0.7 0.1 -0.8
v -0.7 0.1 -0.9
v -0.7 0.4 0.4
v -0.7 0.4 -0.8
v -0.7 0.5 0.5
v -0.7 0.5 -0.9
v -0.7 0.8 -1.6
v -0.7 0.8 -1.9
v -0.7 0.9 -1.6
v -0.7 0.9 -1.9
v -0.6 0.9 -1.8
v -0.6 0.9 -1.9
v -0.6 1.1 -1.8
v -0.6 1.1 -1.9
v -0.3 0.9 -1.8
v -0.3 0.9 -1.9
v -0.3 1.1 -1.8
v -0.3 1.1 -1.9
v -0.2 0.1 0.5
v -0.2 0.1 0.4
v -0.2 0.1 -0.8
v -0.2 0.1 -0.9
v -0.2 0.4 0.5
v -0.2 0.4 0.4
v -0.2 0.4 -0.8
v -0.2 0.4 -0.9
v -0.1 0.9 -1.8
v -0.1 0.9 -1.9
v -0.1 1 -1.8
v -0.1 1 -1.9
v 0.1 0.9 -1.8
v 0.1 0.9 -1.9
v 0.1 1.1 -1.8
v 0.1 1.1 -1.9
v 0.9 0.1 0.7
v 0.9 0.1 -1.9
v 0.9 1.6 0.7
v 0.9 1.6 -1.9
v -1.3 0.1 1.5
v -1.3 0.1 1.4
v -1.3 0.1 0.9
v -1.3 0.1 0.8
v -1.3 0.2 1.5
v -1.3 0.2 1.4
v -1.3 0.2 0.9
v -1.3 0.2 0.8
v -0.9 0.1 0.7
v -0.9 0.1 -1.9
v -0.9 1.6 0.7
v -0.9 1.6 -1.9
v -0.8 0.1 1.5
v -0.8 0.1 1.4
v -0.8 0.1 0.9
v -0.8 0.1 0.8
v -0.8 0.2 1.4
v -0.8 0.2 1.3
v -0.8 0.2 1
v -0.8 0.2 0.9
v -0.8 0.3 1.5
v -0.8 0.3 1.3
v -0.8 0.3 1
v -0.8 0.3 0.8
v -0.6 0.1 0.5
v -0.6 0.1 0.4
v -0.6 0.1 -0.8
v -0.6 0.1 -0.9
v -0.6 0.4 0.5
v -0.6 0.4 0.4
v -0.6 0.4 -0.8
v -0.6 0.4 -0.9
v -0.4 0.9 -1.8
v -0.4 0.9 -1.9
v -0.4 1.1 -1.8
v -0.4 1.1 -1.9
v -0.2 0.9 -1.8
v -0.2 0.9 -1.9
v -0.2 1.1 -1.8
v -0.2 1.1 -1.9
v -0.1 0.1 0.5
v -0.1 0.1 0.4
v -0.1 0.1 -0.8
v -0.1 0.1 -0.9
v -0.1 0.4 0.4
v -0.1 0.4 -0.8
v -0.1 0.5 0.5
v -0.1 0.5 -0.9
v 0 0.9 -1.8
v 0 0.9 -1.9
v 0 1 -1.8
v 0 1 -1.9
v 0.2 0.9 -1.8
v 0.2 0.9 -1.9
v 0.2 1.1 -1.8
v 0.2 1.1 -1.9
v 0.5 0.8 -1.6
v 0.5 0.8 -1.9
v 0.5 0.9 -1.6
v 0.5 0.9 -1.9
v 1.5 0 2
v 1.5 0 0.7
v 1.5 0 -2
v 1.5 0.1 2
v 1.5 0.1 0.7
v 1.5 2.5 0.7
v 1.5 2.5 -2
v -1.5 0 2
v -1.5 0.1 2
v 1.5 0 2
v 1.5 0.1 2
v -1.4 0.1 1.5
v -1.4 0.3 1.5
v -1.3 0.1 1.5
v -1.3 0.2 1.5
v -1.2 0.2 1.5
v -1.2 0.3 1.5
v -1 0.2 1.5
v -1 0.3 1.5
v -0.9 0.1 1.5
v -0.9 0.2 1.5
v -0.8 0.1 1.5
v -0.8 0.3 1.5
v -1.4 0.1 0.9
v -1.4 0.2 0.9
v -1.3 0.1 0.9
v -1.3 0.2 0.9
v -0.9 0.1 0.9
v -0.9 0.2 0.9
v -0.8 0.1 0.9
v -0.8 0.2 0.9
v -1.5 0.1 0.7
v -1.5 2.5 0.7
v -1 1.7 0.7
v -1 2.4 0.7
v -0.9 0.1 0.7
v -0.9 1.6 0.7
v -0.9 1.8 0.7
v -0.9 2.3 0.7
v -0.8 2 0.7
v -0.8 2.1 0.7
v -0.7 1.7 0.7
v -0.7 1.8 0.7
v -0.7 2 0.7
v -0.7 2.1 0.7
v -0.7 2.3 0.7
v -0.7 2.4 0.7
v -0.6 1.8 0.7
v -0.6 2 0.7
v -0.6 2.1 0.7
v -0.6 2.3 0.7
v -0.5 1.7 0.7
v -0.5 2.2 0.7
v -0.4 1.7 0.7
v -0.4 1.9 0.7
v -0.4 2 0.7
v -0.4 2.2 0.7
v -0.4 2.3 0.7
v -0.1 1.7 0.7
v -0.1 1.9 0.7
v -0.1 2 0.7
v -0.1 2.2 0.7
v -0.1 2.3 0.7
v 0 1.7 0.7
v 0 2.2 0.7
v 0.1 1.7 0.7
v 0.1 2.3 0.7
v 0.2 1.7 0.7
v 0.2 2 0.7
v 0.2 2.1 0.7
v 0.2 2.3 0.7
v 0.2 2.4 0.7
v 0.4 1.9 0.7
v 0.4 2 0.7
v 0.5 1.7 0.7
v 0.5 1.9 0.7
v 0.5 2 0.7
v 0.5 2.1 0.7
v 0.5 2.3 0.7
v 0.5 2.4 0.7
v 0.6 1.7 0.7
v 0.6 2 0.7
v 0.6 2.1 0.7
v 0.6 2.3 0.7
v 0.9 0.1 0.7
v 0.9 1.6 0.7
v 1.5 0.1 0.7
v 1.5 2.5 0.7
v -0.7 0.1 0.5
v -0.7 0.5 0.5
v -0.6 0.1 0.5
v -0.6 0.4 0.5
v -0.2 0.1 0.5
v -0.2 0.4 0.5
v -0.1 0.1 0.5
v -0.1 0.5 0.5
v -0.7 0.1 -0.8
v -0.7 0.4 -0.8
v -0.6 0.1 -0.8
v -0.6 0.4 -0.8
v -0.2 0.1 -0.8
v -0.2 0.4 -0.8
v -0.1 0.1 -0.8
v -0.1 0.4 -0.8
v -0.7 0.8 -1.6
v -0.7 0.9 -1.6
v 0.5 0.8 -1.6
v 0.5 0.9 -1.6
v -0.6 0.9 -1.8
v -0.6 1.1 -1.8
v -0.4 0.9 -1.8
v -0.4 1.1 -1.8
v -0.3 0.9 -1.8
v -0.3 1.1 -1.8
v -0.2 0.9 -1.8
v -0.2 1.1 -1.8
v -0.1 0.9 -1.8
v -0.1 1 -1.8
v 0 0.9 -1.8
v 0 1 -1.8
v 0.1 0.9 -1.8
v 0.1 1.1 -1.8
v 0.2 0.9 -1.8
v 0.2 1.1 -1.8
v -0.9 0.1 -1.9
v -0.9 1.6 -1.9
v -0.7 0.8 -1.9
v -0.7 0.9 -1.9
v -0.6 0.9 -1.9
v -0.6 1.1 -1.9
v -0.4 0.9 -1.9
v -0.4 1.1 -1.9
v -0.3 0.9 -1.9
v -0.3 1.1 -1.9
v -0.2 0.9 -1.9
v -0.2 1.1 -1.9
v -0.1 0.9 -1.9
v -0.1 1 -1.9
v 0 0.9 -1.9
v 0 1 -1.9
v 0.1 0.9 -1.9
v 0.1 1.1 -1.9
v 0.2 0.9 -1.9
v 0.2 1.1 -1.9
v 0.5 0.8 -1.9
v 0.5 0.9 -1.9
v 0.9 0.1 -1.9
v 0.9 1.6 -1.9
v -1.4 0.1 1.4
v -1.4 0.2 1.4
v -1.3 0.1 1.4
v -1.3 0.2 1.4
v -0.9 0.1 1.4
v -0.9 0.2 1.4
v -0.8 0.1 1.4
v -0.8 0.2 1.4
v -1.4 0.1 0.8
v -1.4 0.3 0.8
v -1.3 0.1 0.8
v -1.3 0.2 0.8
v -1.2 0.2 0.8
v -1.2 0.3 0.8
v -1 0.2 0.8
v -1 0.3 0.8
v -0.9 0.1 0.8
v -0.9 0.2 0.8
v -0.8 0.1 0.8
v -0.8 0.3 0.8
v -0.7 0.1 0.4
v -0.7 0.4 0.4
v -0.6 0.1 0.4
v -0.6 0.4 0.4
v -0.2 0.1 0.4
v -0.2 0.4 0.4
v -0.1 0.1 0.4
v -0.1 0.4 0.4
v -0.7 0.1 -0.9
v -0.7 0.5 -0.9
v -0.6 0.1 -0.9
v -0.6 0.4 -0.9
v -0.2 0.1 -0.9
v -0.2 0.4 -0.9
v -0.1 0.1 -0.9
v -0.1 0.5 -0.9
v -1.5 0 -2
v -1.5 2.5 -2
v 1.5 0 -2
v 1.5 2.5 -2
v -1.5 0 2
v 1.5 0 2
v -1.5 0 0.7
v 1.5 0 0.7
v -1.5 0 -2
v 1.5 0 -2
v -1.3 0.2 1.5
v -1.2 0.2 1.5
v -1 0.2 1.5
v -0.9 0.2 1.5
v -1.4 0.2 1.4
v -1.3 0.2 1.4
v -1.2 0.2 1.4
v -1 0.2 1.4
v -0.9 0.2 1.4
v -0.8 0.2 1.4
v -1.4 0.2 1.3
v -1.3 0.2 1.3
v -0.9 0.2 1.3
v -0.8 0.2 1.3
v -1.4 0.2 1
v -1.3 0.2 1
v -0.9 0.2 1
v -0.8 0.2 1
v -1.4 0.2 0.9
v -1.3 0.2 0.9
v -1.2 0.2 0.9
v -1 0.2 0.9
v -0.9 0.2 0.9
v -0.8 0.2 0.9
v -1.3 0.2 0.8
v -1.2 0.2 0.8
v -1 0.2 0.8
v -0.9 0.2 0.8
v -0.6 0.4 0.5
v -0.2 0.4 0.5
v -0.7 0.4 0.4
v -0.6 0.4 0.4
v -0.2 0.4 0.4
v -0.1 0.4 0.4
v -0.7 0.4 -0.8
v -0.6 0.4 -0.8
v -0.2 0.4 -0.8
v -0.1 0.4 -0.8
v -0.6 0.4 -0.9
v -0.2 0.4 -0.9
v -0.7 0.8 -1.6
v 0.5 0.8 -1.6
v -0.7 0.8 -1.9
v 0.5 0.8 -1.9
v -0.9 1.6 0.7
v 0.9 1.6 0.7
v -0.9 1.6 -1.9
v 0.9 1.6 -1.9
v -1.5 0.1 2
v 1.5 0.1 2
v -1.4 0.1 1.5
v -1.3 0.1 1.5
v -0.9 0.1 1.5
v -0.8 0.1 1.5
v -1.4 0.1 1.4
v -1.3 0.1 1.4
v -0.9 0.1 1.4
v -0.8 0.1 1.4
v -1.4 0.1 0.9
v -1.3 0.1 0.9
v -0.9 0.1 0.9
v -0.8 0.1 0.9
v -1.4 0.1 0.8
v -1.3 0.1 0.8
v -0.9 0.1 0.8
v -0.8 0.1 0.8
v -1.5 0.1 0.7
v -0.9 0.1 0.7
v 0.9 0.1 0.7
v 1.5 0.1 0.7
v -0.7 0.1 0.5
v -0.6 0.1 0.5
v -0.2 0.1 0.5
v -0.1 0.1 0.5
v -0.7 0.1 0.4
v -0.6 0.1 0.4
v -0.2 0.1 0.4
v -0.1 0.1 0.4
v -0.7 0.1 -0.8
v -0.6 0.1 -0.8
v -0.2 0.1 -0.8
v -0.1 0.1 -0.8
v -0.7 0.1 -0.9
v -0.6 0.1 -0.9
v -0.2 0.1 -0.9
v -0.1 0.1 -0.9
v -0.9 0.1 -1.9
v 0.9 0.1 -1.9
v -1.4 0.3 1.5
v -1.2 0.3 1.5
v -1 0.3 1.5
v -0.8 0.3 1.5
v -1.3 0.3 1.4
v -1.2 0.3 1.4
v -1 0.3 1.4
v -0.9 0.3 1.4
v -1.4 0.3 1.3
v -1.3 0.3 1.3
v -0.9 0.3 1.3
v -0.8 0.3 1.3
v -1.4 0.3 1
v -1.3 0.3 1
v -0.9 0.3 1
v -0.8 0.3 1
v -1.3 0.3 0.9
v -1.2 0.3 0.9
v -1 0.3 0.9
v -0.9 0.3 0.9
v -1.4 0.3 0.8
v -1.2 0.3 0.8
v -1 0.3 0.8
v -0.8 0.3 0.8
v -0.7 0.5 0.5
v -0.1 0.5 0.5
v -0.6 0.5 0.4
v -0.2 0.5 0.4
v -0.6 0.5 -0.8
v -0.2 0.5 -0.8
v -0.7 0.5 -0.9
v -0.1 0.5 -0.9
v -0.7 0.9 -1.6
v 0.5 0.9 -1.6
v -0.6 0.9 -1.8
v -0.4 0.9 -1.8
v -0.3 0.9 -1.8
v -0.2 0.9 -1.8
v -0.1 0.9 -1.8
v 0 0.9 -1.8
v 0.1 0.9 -1.8
v 0.2 0.9 -1.8
v -0.7 0.9 -1.9
v -0.6 0.9 -1.9
v -0.4 0.9 -1.9
v -0.3 0.9 -1.9
v -0.2 0.9 -1.9
v -0.1 0.9 -1.9
v 0 0.9 -1.9
v 0.1 0.9 -1.9
v 0.2 0.9 -1.9
v 0.5 0.9 -1.9
v -0.1 1 -1.8
v 0 1 -1.8
v -0.1 1 -1.9
v 0 1 -1.9
v -0.6 1.1 -1.8
v -0.4 1.1 -1.8
v -0.3 1.1 -1.8
v -0.2 1.1 -1.8
v 0.1 1.1 -1.8
v 0.2 1.1 -1.8
v -0.6 1.1 -1.9
v -0.4 1.1 -1.9
v -0.3 1.1 -1.9
v -0.2 1.1 -1.9
v 0.1 1.1 -1.9
v 0.2 1.1 -1.9
v -1.5 2.5 0.7
v 1.5 2.5 0.7
v -1.5 2.5 -2
v 1.5 2.5 -2

# faces
f 4/7/1 2/7/1 1/7/1
f 5/3/1 3/3/1 2/3/1
f 5/7/1 2/7/1 4/7/1
f 6/3/1 3/3/1 5/3/1
f 7/3/1 3/3/1 6/3/1
f 12/1/1 9/1/1 8/1/1
f 15/1/1 11/1/1 10/1/1
f 16/1/1 12/1/1 8/1/1
f 16/1/1 13/1/1 12/1/1
f 17/4/1 14/4/1 13/4/1
f 17/1/1 13/1/1 16/1/1
f 18/1/1 15/1/1 14/1/1
f 18/4/1 14/4/1 17/4/1
f 19/1/1 11/1/1 15/1/1
f 19/1/1 15/1/1 18/1/1
f 24/1/1 21/1/1 20/1/1
f 25/1/1 21/1/1 24/1/1
f 26/1/1 23/1/1 22/1/1
f 27/1/1 23/1/1 26/1/1
f 32/5/1 29/5/1 28/5/1
f 33/5/1 31/5/1 30/5/1
f 34/5/1 32/5/1 28/5/1
f 34/5/1 33/5/1 32/5/1
f 35/5/1 31/5/1 33/5/1
f 35/5/1 33/5/1 34/5/1
f 38/5/1 37/5/1 36/5/1
f 39/5/1 37/5/1 38/5/1
f 42/2/1 41/2/1 40/2/1
f 43/2/1 41/2/1 42/2/1
f 46/2/1 45/2/1 44/2/1
f 47/2/1 45/2/1 46/2/1
f 52/5/1 49/5/1 48/5/1
f 53/5/1 49/5/1 52/5/1
f 54/5/1 51/5/1 50/5/1
f 55/5/1 51/5/1 54/5/1
f 58/2/1 57/2/1 56/2/1
f 59/2/1 57/2/1 58/2/1
f 62/2/1 61/2/1 60/2/1
f 63/2/1 61/2/1 62/2/1
f 66/3/1 65/3/1 64/3/1
f 67/3/1 65/3/1 66/3/1
f 68/1/2 69/1/2 72/1/2
f 72/1/2 69/1/2 73/1/2
f 70/1/2 71/1/2 74/1/2
f 74/1/2 71/1/2 75/1/2
f 76/3/2 77/3/2 78/3/2
f 78/3/2 77/3/2 79/3/2
f 80/1/2 81/1/2 84/1/2
f 82/1/2 83/1/2 87/1/2
f 80/1/2 84/1/2 88/1/2
f 84/1/2 85/1/2 88/1/2
f 85/4/2 86/4/2 89/4/2
f 88/1/2 85/1/2 89/1/2
f 86/1/2 87/1/2 90/1/2
f 89/4/2 86/4/2 90/4/2
f 87/1/2 83/1/2 91/1/2
f 90/1/2 87/1/2 91/1/2
f 92/5/2 93/5/2 96/5/2
f 96/5/2 93/5/2 97/5/2
f 94/5/2 95/5/2 98/5/2
f 98/5/2 95/5/2 99/5/2
f 100/2/2 101/2/2 102/2/2
f 102/2/2 101/2/2 103/2/2
f 104/2/2 105/2/2 106/2/2
f 106/2/2 105/2/2 107/2/2
f 108/5/2 109/5/2 112/5/2
f 110/5/2 111/5/2 113/5/2
f 108/5/2 112/5/2 114/5/2
f 112/5/2 113/5/2 114/5/2
f 113/5/2 111/5/2 115/5/2
f 114/5/2 113/5/2 115/5/2
f 116/2/2 117/2/2 118/2/2
f 118/2/2 117/2/2 119/2/2
f 120/2/2 121/2/2 122/2/2
f 122/2/2 121/2/2 123/2/2
f 124/5/2 125/5/2 126/5/2
f 126/5/2 125/5/2 127/5/2
f 128/7/2 129/7/2 131/7/2
f 129/3/2 130/3/2 132/3/2
f 131/7/2 129/7/2 132/7/2
f 132/3/2 130/3/2 133/3/2
f 133/3/2 130/3/2 134/3/2
f 137/7/3 136/7/3 135/7/3
f 138/7/3 136/7/3 137/7/3
f 141/1/3 140/1/3 139/1/3
f 142/1/3 140/1/3 141/1/3
f 143/1/3 140/1/3 142/1/3
f 144/1/3 140/1/3 143/1/3
f 145/4/3 144/4/3 143/4/3
f 146/4/3 144/4/3 145/4/3
f 148/1/3 146/1/3 145/1/3
f 149/1/3 148/1/3 147/1/3
f 150/1/3 146/1/3 148/1/3
f 150/1/3 148/1/3 149/1/3
f 153/1/3 152/1/3 151/1/3
f 154/1/3 152/1/3 153/1/3
f 157/1/3 156/1/3 155/1/3
f 158/1/3 156/1/3 157/1/3
f 161/3/3 160/3/3 159/3/3
f 162/3/3 160/3/3 161/3/3
f 163/3/3 161/3/3 159/3/3
f 164/3/3 161/3/3 163/3/3
f 165/8/3 162/8/3 161/8/3
f 166/8/3 162/8/3 165/8/3
f 167/3/3 166/3/3 165/3/3
f 168/3/3 166/3/3 167/3/3
f 169/3/3 161/3/3 164/3/3
f 169/8/3 165/8/3 161/8/3
f 170/3/3 167/3/3 165/3/3
f 170/8/3 165/8/3 169/8/3
f 171/8/3 168/8/3 167/8/3
f 171/3/3 167/3/3 170/3/3
f 172/3/3 166/3/3 168/3/3
f 172/8/3 168/8/3 171/8/3
f 173/8/3 162/8/3 166/8/3
f 173/3/3 166/3/3 172/3/3
f 174/3/3 160/3/3 162/3/3
f 174/8/3 162/8/3 173/8/3
f 175/8/3 171/8/3 170/8/3
f 175/3/3 170/3/3 169/3/3
f 176/3/3 172/3/3 171/3/3
f 176/8/3 171/8/3 175/8/3
f 177/8/3 173/8/3 172/8/3
f 177/3/3 172/3/3 176/3/3
f 178/3/3 174/3/3 173/3/3
f 178/8/3 173/8/3 177/8/3
f 179/3/3 176/3/3 175/3/3
f 179/3/3 175/3/3 169/3/3
f 179/3/3 178/3/3 177/3/3
f 179/3/3 169/3/3 164/3/3
f 179/3/3 177/3/3 176/3/3
f 180/3/3 178/3/3 179/3/3
f 181/3/3 179/3/3 164/3/3
f 181/8/3 180/8/3 179/8/3
f 182/8/3 180/8/3 181/8/3
f 183/8/3 180/8/3 182/8/3
f 184/3/3 178/3/3 180/3/3
f 184/8/3 180/8/3 183/8/3
f 185/3/3 174/3/3 178/3/3
f 185/3/3 178/3/3 184/3/3
f 186/3/3 181/3/3 164/3/3
f 186/3/3 182/3/3 181/3/3
f 187/8/3 183/8/3 182/8/3
f 187/3/3 182/3/3 186/3/3
f 188/3/3 184/3/3 183/3/3
f 188/8/3 183/8/3 187/8/3
f 189/8/3 185/8/3 184/8/3
f 189/3/3 184/3/3 188/3/3
f 190/3/3 174/3/3 185/3/3
f 190/8/3 185/8/3 189/8/3
f 191/8/3 187/8/3 186/8/3
f 191/3/3 186/3/3 164/3/3
f 191/8/3 189/8/3 188/8/3
f 191/8/3 188/8/3 187/8/3
f 192/3/3 190/3/3 189/3/3
f 192/8/3 189/8/3 191/8/3
f 193/3/3 191/3/3 164/3/3
f 193/3/3 192/3/3 191/3/3
f 194/3/3 174/3/3 190/3/3
f 194/3/3 192/3/3 193/3/3
f 194/3/3 190/3/3 192/3/3
f 195/3/3 193/3/3 164/3/3
f 195/8/3 194/8/3 193/8/3
f 196/8/3 194/8/3 195/8/3
f 197/8/3 194/8/3 196/8/3
f 198/3/3 174/3/3 194/3/3
f 198/8/3 194/8/3 197/8/3
f 199/3/3 160/3/3 174/3/3
f 199/3/3 174/3/3 198/3/3
f 200/3/3 196/3/3 195/3/3
f 201/8/3 197/8/3 196/8/3
f 201/3/3 196/3/3 200/3/3
f 202/3/3 200/3/3 195/3/3
f 202/3/3 195/3/3 164/3/3
f 203/8/3 201/8/3 200/8/3
f 203/3/3 200/3/3 202/3/3
f 204/8/3 197/8/3 201/8/3
f 204/8/3 201/8/3 203/8/3
f 205/3/3 198/3/3 197/3/3
f 205/8/3 197/8/3 204/8/3
f 206/8/3 199/8/3 198/8/3
f 206/3/3 198/3/3 205/3/3
f 207/3/3 160/3/3 199/3/3
f 207/8/3 199/8/3 206/8/3
f 208/8/3 203/8/3 202/8/3
f 208/8/3 204/8/3 203/8/3
f 208/3/3 202/3/3 164/3/3
f 209/3/3 205/3/3 204/3/3
f 209/8/3 204/8/3 208/8/3
f 210/8/3 206/8/3 205/8/3
f 210/3/3 205/3/3 209/3/3
f 211/3/3 207/3/3 206/3/3
f 211/8/3 206/8/3 210/8/3
f 213/3/3 210/3/3 209/3/3
f 213/3/3 208/3/3 164/3/3
f 213/3/3 211/3/3 210/3/3
f 213/3/3 209/3/3 208/3/3
f 214/3/3 213/3/3 212/3/3
f 215/3/3 160/3/3 207/3/3
f 215/3/3 213/3/3 214/3/3
f 215/3/3 207/3/3 211/3/3
f 215/3/3 211/3/3 213/3/3
f 218/5/3 217/5/3 216/5/3
f 219/5/3 217/5/3 218/5/3
f 221/5/3 217/5/3 219/5/3
f 222/5/3 221/5/3 220/5/3
f 223/5/3 217/5/3 221/5/3
f 223/5/3 221/5/3 222/5/3
f 226/5/3 225/5/3 224/5/3
f 227/5/3 225/5/3 226/5/3
f 230/5/3 229/5/3 228/5/3
f 231/5/3 229/5/3 230/5/3
f 234/5/3 233/5/3 232/5/3
f 235/5/3 233/5/3 234/5/3
f 238/2/3 237/2/3 236/2/3
f 239/2/3 237/2/3 238/2/3
f 242/2/3 241/2/3 240/2/3
f 243/2/3 241/2/3 242/2/3
f 246/2/3 245/2/3 244/2/3
f 247/2/3 245/2/3 246/2/3
f 250/2/3 249/2/3 248/2/3
f 251/2/3 249/2/3 250/2/3
f 254/3/3 253/3/3 252/3/3
f 255/3/3 253/3/3 254/3/3
f 256/3/3 253/3/3 255/3/3
f 257/3/3 253/3/3 256/3/3
f 259/3/3 253/3/3 257/3/3
f 260/3/3 259/3/3 258/3/3
f 261/3/3 253/3/3 259/3/3
f 261/3/3 259/3/3 260/3/3
f 263/3/3 253/3/3 261/3/3
f 264/3/3 263/3/3 262/3/3
f 265/3/3 263/3/3 264/3/3
f 267/3/3 263/3/3 265/3/3
f 268/3/3 267/3/3 266/3/3
f 269/3/3 253/3/3 263/3/3
f 269/3/3 267/3/3 268/3/3
f 269/3/3 263/3/3 267/3/3
f 271/3/3 253/3/3 269/3/3
f 272/3/3 254/3/3 252/3/3
f 273/3/3 271/3/3 270/3/3
f 274/3/3 272/3/3 252/3/3
f 274/3/3 273/3/3 272/3/3
f 275/3/3 271/3/3 273/3/3
f 275/3/3 273/3/3 274/3/3
f 275/3/3 253/3/3 271/3/3
f 276/1/4 277/1/4 278/1/4
f 278/1/4 277/1/4 279/1/4
f 280/1/4 281/1/4 282/1/4
f 282/1/4 281/1/4 283/1/4
f 284/1/4 285/1/4 286/1/4
f 286/1/4 285/1/4 287/1/4
f 287/1/4 285/1/4 288/1/4
f 288/1/4 285/1/4 289/1/4
f 288/4/4 289/4/4 290/4/4
f 290/4/4 289/4/4 291/4/4
f 290/1/4 291/1/4 293/1/4
f 292/1/4 293/1/4 294/1/4
f 293/1/4 291/1/4 295/1/4
f 294/1/4 293/1/4 295/1/4
f 296/5/4 297/5/4 298/5/4
f 298/5/4 297/5/4 299/5/4
f 300/5/4 301/5/4 302/5/4
f 302/5/4 301/5/4 303/5/4
f 304/5/4 305/5/4 306/5/4
f 306/5/4 305/5/4 307/5/4
f 307/5/4 305/5/4 309/5/4
f 308/5/4 309/5/4 310/5/4
f 309/5/4 305/5/4 311/5/4
f 310/5/4 309/5/4 311/5/4
f 312/3/4 313/3/4 314/3/4
f 314/3/4 313/3/4 315/3/4
f 318/7/5 317/7/5 316/7/5
f 319/7/5 317/7/5 318/7/5
f 320/3/5 319/3/5 318/3/5
f 321/3/5 319/3/5 320/3/5
f 327/1/5 323/1/5 322/1/5
f 328/4/5 324/4/5 323/4/5
f 328/1/5 323/1/5 327/1/5
f 329/1/5 325/1/5 324/1/5
f 329/4/5 324/4/5 328/4/5
f 330/1/5 325/1/5 329/1/5
f 332/1/5 327/1/5 326/1/5
f 333/4/5 328/4/5 327/4/5
f 333/1/5 327/1/5 332/1/5
f 333/4/5 329/4/5 328/4/5
f 333/4/5 330/4/5 329/4/5
f 334/1/5 331/1/5 330/1/5
f 334/4/5 330/4/5 333/4/5
f 335/1/5 331/1/5 334/1/5
f 336/4/5 333/4/5 332/4/5
f 336/4/5 334/4/5 333/4/5
f 336/4/5 335/4/5 334/4/5
f 337/4/5 335/4/5 336/4/5
f 338/4/5 335/4/5 337/4/5
f 339/4/5 335/4/5 338/4/5
f 340/1/5 337/1/5 336/1/5
f 341/4/5 338/4/5 337/4/5
f 341/1/5 337/1/5 340/1/5
f 342/4/5 338/4/5 341/4/5
f 343/4/5 338/4/5 342/4/5
f 344/1/5 339/1/5 338/1/5
f 344/4/5 338/4/5 343/4/5
f 345/1/5 339/1/5 344/1/5
f 346/1/5 342/1/5 341/1/5
f 347/4/5 343/4/5 342/4/5
f 347/1/5 342/1/5 346/1/5
f 348/1/5 344/1/5 343/1/5
f 348/4/5 343/4/5 347/4/5
f 349/1/5 344/1/5 348/1/5
f 353/5/5 351/5/5 350/5/5
f 354/5/5 351/5/5 353/5/5
f 356/5/5 353/5/5 352/5/5
f 357/6/5 354/6/5 353/6/5
f 357/5/5 353/5/5 356/5/5
f 358/5/5 355/5/5 354/5/5
f 358/6/5 354/6/5 357/6/5
f 359/5/5 355/5/5 358/5/5
f 360/5/5 358/5/5 357/5/5
f 361/5/5 358/5/5 360/5/5
f 364/5/5 363/5/5 362/5/5
f 365/5/5 363/5/5 364/5/5
f 368/3/5 367/3/5 366/3/5
f 369/3/5 367/3/5 368/3/5
f 370/7/6 371/7/6 372/7/6
f 372/7/6 371/7/6 373/7/6
f 373/7/6 371/7/6 374/7/6
f 374/7/6 371/7/6 375/7/6
f 370/7/6 372/7/6 376/7/6
f 373/7/6 374/7/6 377/7/6
f 377/7/6 374/7/6 378/7/6
f 375/7/6 371/7/6 379/7/6
f 377/7/6 378/7/6 380/7/6
f 378/7/6 379/7/6 380/7/6
f 370/7/6 376/7/6 380/7/6
f 376/7/6 377/7/6 380/7/6
f 380/7/6 379/7/6 381/7/6
f 381/7/6 379/7/6 382/7/6
f 379/7/6 371/7/6 383/7/6
f 382/7/6 379/7/6 383/7/6
f 370/7/6 380/7/6 384/7/6
f 381/7/6 382/7/6 385/7/6
f 385/7/6 382/7/6 386/7/6
f 383/7/6 371/7/6 387/7/6
f 370/7/6 384/7/6 388/7/6
f 386/7/6 387/7/6 388/7/6
f 385/7/6 386/7/6 388/7/6
f 384/7/6 385/7/6 388/7/6
f 388/7/6 387/7/6 389/7/6
f 387/7/6 371/7/6 390/7/6
f 389/7/6 387/7/6 390/7/6
f 390/7/6 371/7/6 391/7/6
f 389/3/6 390/3/6 392/3/6
f 392/3/6 390/3/6 393/3/6
f 393/3/6 390/3/6 394/3/6
f 394/3/6 390/3/6 395/3/6
f 389/3/6 392/3/6 396/3/6
f 393/3/6 394/3/6 397/3/6
f 397/3/6 394/3/6 398/3/6
f 395/3/6 390/3/6 399/3/6
f 397/3/6 398/3/6 400/3/6
f 398/3/6 399/3/6 400/3/6
f 389/3/6 396/3/6 400/3/6
f 396/3/6 397/3/6 400/3/6
f 400/3/6 399/3/6 401/3/6
f 401/3/6 399/3/6 402/3/6
f 399/3/6 390/3/6 403/3/6
f 402/3/6 399/3/6 403/3/6
f 389/3/6 400/3/6 404/3/6
f 401/3/6 402/3/6 405/3/6
f 405/3/6 402/3/6 406/3/6
f 403/3/6 390/3/6 407/3/6
f 389/3/6 404/3/6 408/3/6
f 406/3/6 407/3/6 408/3/6
f 405/3/6 406/3/6 408/3/6
f 404/3/6 405/3/6 408/3/6
f 407/3/6 390/3/6 409/3/6
f 408/3/6 407/3/6 409/3/6
f 410/1/6 411/1/6 414/1/6
f 411/4/6 412/4/6 415/4/6
f 414/1/6 411/1/6 415/1/6
f 412/1/6 413/1/6 416/1/6
f 415/4/6 412/4/6 416/4/6
f 416/1/6 413/1/6 417/1/6
f 410/1/6 414/1/6 418/1/6
f 414/4/6 415/4/6 419/4/6
f 418/1/6 414/1/6 419/1/6
f 415/4/6 416/4/6 419/4/6
f 416/4/6 417/4/6 419/4/6
f 417/1/6 413/1/6 420/1/6
f 419/4/6 417/4/6 420/4/6
f 420/1/6 413/1/6 421/1/6
f 418/4/6 419/4/6 422/4/6
f 419/4/6 420/4/6 422/4/6
f 420/4/6 421/4/6 422/4/6
f 422/4/6 421/4/6 423/4/6
f 423/4/6 421/4/6 424/4/6
f 424/4/6 421/4/6 425/4/6
f 422/1/6 423/1/6 426/1/6
f 423/4/6 424/4/6 426/4/6
f 426/4/6 424/4/6 427/4/6
f 427/4/6 424/4/6 428/4/6
f 424/1/6 425/1/6 429/1/6
f 428/4/6 424/4/6 429/4/6
f 422/1/6 426/1/6 430/1/6
f 426/1/6 427/1/6 430/1/6
f 427/4/6 428/4/6 431/4/6
f 430/1/6 427/1/6 431/1/6
f 428/1/6 429/1/6 432/1/6
f 431/4/6 428/4/6 432/4/6
f 429/1/6 425/1/6 433/1/6
f 432/1/6 429/1/6 433/1/6
f 434/5/6 435/5/6 436/5/6
f 436/5/6 435/5/6 437/5/6
f 434/5/6 436/5/6 438/5/6
f 436/6/6 437/6/6 438/6/6
f 437/5/6 435/5/6 439/5/6
f 438/6/6 437/6/6 439/6/6
f 434/5/6 438/5/6 440/5/6
f 438/5/6 439/5/6 440/5/6
f 439/5/6 435/5/6 441/5/6
f 440/5/6 439/5/6 441/5/6
f 442/5/6 443/5/6 444/5/6
f 444/5/6 443/5/6 445/5/6
f 445/5/6 443/5/6 446/5/6
f 446/5/6 443/5/6 447/5/6
f 447/5/6 443/5/6 448/5/6
f 448/5/6 443/5/6 449/5/6
f 449/5/6 443/5/6 450/5/6
f 450/5/6 443/5/6 451/5/6
f 442/5/6 444/5/6 452/5/6
f 452/5/6 444/5/6 453/5/6
f 445/5/6 446/5/6 454/5/6
f 454/5/6 446/5/6 455/5/6
f 447/5/6 448/5/6 456/5/6
f 456/5/6 448/5/6 457/5/6
f 449/5/6 450/5/6 458/5/6
f 458/5/6 450/5/6 459/5/6
f 451/5/6 443/5/6 460/5/6
f 460/5/6 443/5/6 461/5/6
f 462/2/6 463/2/6 464/2/6
f 464/2/6 463/2/6 465/2/6
f 466/2/6 467/2/6 472/2/6
f 472/2/6 467/2/6 473/2/6
f 468/2/6 469/2/6 474/2/6
f 474/2/6 469/2/6 475/2/6
f 470/2/6 471/2/6 476/2/6
f 476/2/6 471/2/6 477/2/6
f 478/3/6 479/3/6 480/3/6
f 480/3/6 479/3/6 481/3/6
