# Blender v2.83.16 OBJ File: 'ps1 weapons.blend'
# www.blender.org
mtllib ak-47.mtl
o ak-47_Cube.001
v -0.016612 0.027926 0.034936
v -0.016612 0.081052 0.034936
v -0.016612 0.018555 -0.236178
v -0.016612 0.077715 -0.225599
v 0.016612 0.027926 0.034936
v 0.016612 0.081052 0.034936
v 0.016612 0.018555 -0.236178
v 0.016612 0.077715 -0.225599
v -0.016612 0.064203 0.034936
v -0.016612 0.057216 -0.240638
v 0.016612 0.057216 -0.240638
v 0.016612 0.064203 0.034936
v -0.016612 -0.054079 -0.458450
v 0.016612 -0.054079 -0.458450
v -0.016612 0.022243 -0.472882
v 0.016612 0.022243 -0.472882
v -0.016612 0.047720 -0.333665
v -0.016612 -0.007773 -0.307527
v 0.016612 -0.007773 -0.307527
v 0.016612 0.047720 -0.333665
v -0.016612 0.000089 -0.286221
v 0.016612 0.042583 -0.314143
v -0.016612 0.042583 -0.314143
v 0.016612 0.000089 -0.286221
v -0.011118 -0.002784 -0.159038
v -0.011118 0.022177 -0.159748
v -0.011118 0.008220 -0.227661
v -0.011118 0.022177 -0.225886
v 0.011118 -0.002784 -0.159038
v 0.011118 0.022177 -0.159748
v 0.011118 0.008220 -0.227661
v 0.011118 0.022177 -0.225886
v -0.011118 -0.012024 -0.176527
v -0.011118 -0.006759 -0.219414
v 0.011118 -0.012024 -0.176527
v 0.011118 -0.006759 -0.219414
v -0.011118 -0.071329 -0.201424
v -0.011118 -0.073813 -0.240229
v 0.011118 -0.071329 -0.201424
v 0.011118 -0.073813 -0.240229
v -0.011118 -0.093598 -0.200179
v 0.000000 0.018555 -0.236178
v 0.011118 -0.093598 -0.200179
v 0.000000 0.094328 -0.211968
v 0.000000 0.027926 0.034936
v 0.000000 0.097665 0.034936
v 0.000000 0.064203 0.034936
v 0.000000 0.057216 -0.240638
v 0.000000 -0.062852 -0.456791
v 0.000000 0.031016 -0.474541
v 0.000000 0.047720 -0.333665
v 0.000000 -0.007773 -0.307527
v 0.000000 0.000089 -0.286221
v 0.000000 0.042583 -0.314143
v -0.005194 -0.004318 -0.089907
v -0.005194 0.029010 -0.089907
v -0.005194 -0.004318 -0.109472
v -0.005194 0.029010 -0.109472
v 0.005194 -0.004318 -0.089907
v 0.005194 0.029010 -0.089907
v 0.005194 -0.004318 -0.109472
v 0.005194 0.029010 -0.109472
v -0.005194 -0.004318 -0.106142
v -0.005194 0.029010 -0.106142
v 0.005194 -0.004318 -0.106142
v 0.005194 0.029010 -0.106142
v -0.005194 -0.012938 -0.109472
v 0.005194 -0.012938 -0.109472
v -0.005194 -0.015664 -0.107331
v 0.005194 -0.015664 -0.107331
v -0.005194 -0.001993 -0.167564
v 0.005194 -0.001993 -0.167564
v 0.005194 -0.015947 -0.160559
v -0.005194 -0.015947 -0.160559
v 0.005194 -0.013646 -0.158284
v -0.005194 -0.013646 -0.158284
v 0.005194 0.000535 -0.165545
v -0.005194 0.000535 -0.165545
v -0.002498 -0.020857 -0.095107
v -0.002498 0.004040 -0.092699
v -0.002498 -0.020018 -0.100032
v -0.002498 0.004879 -0.097624
v 0.002498 -0.020857 -0.095107
v 0.002498 0.004040 -0.092699
v 0.002498 -0.020018 -0.100032
v 0.002498 0.004879 -0.097624
v 0.015772 0.100005 0.004037
v 0.015772 0.071344 0.004037
v 0.015772 0.104570 0.071643
v 0.015772 0.071344 0.071643
v -0.015772 0.100005 0.004037
v -0.015772 0.071344 0.004037
v -0.015772 0.104570 0.071643
v -0.015772 0.071344 0.071643
v 0.015772 0.100005 0.036984
v 0.015772 0.071344 0.036984
v -0.015772 0.100005 0.036984
v -0.015772 0.071344 0.036984
v 0.015772 0.071344 0.042666
v -0.015772 0.104570 0.042666
v 0.015772 0.104570 0.042666
v -0.015772 0.071344 0.042666
v -0.017797 0.038156 0.191537
v -0.017797 0.074007 0.191537
v -0.017797 0.020407 0.035387
v -0.017797 0.074007 0.035387
v 0.017797 0.038156 0.191537
v 0.017797 0.074007 0.191537
v 0.017797 0.020407 0.035387
v 0.017797 0.074007 0.035387
v -0.017797 0.020407 0.050211
v -0.017797 0.074007 0.050211
v 0.017797 0.020407 0.050211
v 0.017797 0.074007 0.050211
v -0.017797 0.033719 0.079018
v 0.017797 0.074007 0.079018
v -0.017797 0.074007 0.079018
v 0.017797 0.033719 0.079018
v -0.017797 0.033719 0.183921
v 0.017797 0.074007 0.183921
v -0.017797 0.074007 0.183921
v 0.017797 0.033719 0.183921
v -0.017573 0.075064 0.190043
v -0.017573 0.096442 0.190043
v -0.017573 0.075064 0.083357
v -0.017573 0.101167 0.083357
v 0.017573 0.075064 0.190043
v 0.017573 0.096442 0.190043
v 0.017573 0.075064 0.083357
v 0.017573 0.101167 0.083357
v -0.017573 0.075064 0.184085
v -0.017573 0.101167 0.184085
v 0.017573 0.075064 0.184085
v 0.017573 0.101167 0.184085
v -0.017573 0.075064 0.078222
v -0.017573 0.098702 0.078222
v 0.017573 0.075064 0.078222
v 0.017573 0.098702 0.078222
v -0.000000 0.078369 0.025955
v -0.000000 0.078933 0.260192
v -0.000000 0.051194 0.170018
v 0.007626 0.058820 0.170018
v -0.000000 0.058820 0.406835
v -0.000000 0.066446 0.170018
v -0.007626 0.058820 0.170018
v 0.006187 0.084556 0.262773
v 0.006187 0.084556 0.025955
v -0.000000 0.090179 0.265354
v -0.000000 0.090743 0.025955
v -0.006187 0.084556 0.262773
v -0.006187 0.084556 0.025955
v -0.000000 0.061382 0.271008
v 0.005203 0.061176 0.281090
v -0.000000 0.060969 0.290788
v -0.005203 0.061176 0.281090
v -0.000000 0.042784 0.390689
v -0.000000 0.042784 0.189652
v 0.002248 0.046677 0.390689
v 0.002248 0.046677 0.189652
v -0.002248 0.046677 0.390689
v -0.002248 0.046677 0.189652
v -0.003973 0.042065 0.274431
v -0.003973 0.057160 0.277544
v -0.003973 0.042065 0.260779
v -0.003973 0.057160 0.265715
v 0.003973 0.042065 0.274431
v 0.003973 0.057160 0.277544
v 0.003973 0.042065 0.260779
v 0.003973 0.057160 0.265715
v -0.003973 0.042065 0.394483
v -0.003973 0.057160 0.394483
v -0.003973 0.042065 0.380831
v -0.003973 0.057160 0.374668
v 0.003973 0.042065 0.394483
v 0.003973 0.057160 0.394483
v 0.003973 0.042065 0.380831
v 0.003973 0.057160 0.374668
v -0.003074 0.062559 0.392660
v -0.003074 0.101588 0.392660
v -0.003074 0.062559 0.359623
v -0.003074 0.101588 0.376570
v 0.003074 0.062559 0.392660
v 0.003074 0.101588 0.392660
v 0.003074 0.062559 0.359623
v 0.003074 0.101588 0.376570
v -0.007865 0.110718 0.392660
v -0.007865 0.110718 0.376570
v 0.007865 0.110718 0.392660
v 0.007865 0.110718 0.376570
v -0.003264 0.003647 -0.147086
v -0.003264 0.024725 -0.140566
v -0.003264 0.001420 -0.150263
v -0.003264 0.025961 -0.150503
v 0.003264 0.003647 -0.147086
v 0.003264 0.024725 -0.140566
v 0.003264 0.001420 -0.150263
v 0.003264 0.025961 -0.150503
v -0.003264 -0.006531 -0.137051
v 0.003264 -0.006531 -0.137051
v 0.000000 0.059070 0.299504
v 0.000000 0.059070 0.263182
v -0.000000 0.051194 0.406835
v 0.007626 0.058820 0.406835
v -0.000000 0.066446 0.406835
v -0.007626 0.058820 0.406835
v 0.000000 0.048696 0.299504
v 0.008985 0.053883 0.299504
v 0.008985 0.064258 0.299504
v 0.000000 0.069445 0.299504
v -0.008985 0.064258 0.299504
v -0.008985 0.053883 0.299504
v 0.008985 0.053883 0.263182
v 0.000000 0.048696 0.263182
v 0.008985 0.064258 0.263182
v 0.000000 0.069445 0.263182
v -0.008985 0.064258 0.263182
v -0.008985 0.053883 0.263182
v 0.000000 0.077177 0.088871
v 0.007199 0.081334 0.088871
v 0.007199 0.089647 0.088871
v 0.000000 0.093803 0.088871
v -0.007199 0.089647 0.088871
v -0.007199 0.081334 0.088871
v 0.007199 0.081334 0.059766
v 0.000000 0.077177 0.059766
v 0.007199 0.089647 0.059766
v 0.000000 0.093803 0.059766
v -0.007199 0.089647 0.059766
v -0.007199 0.081334 0.059766
v -0.012272 0.065901 0.003583
v -0.012272 0.076210 0.003583
v -0.012272 0.065901 -0.000743
v -0.012272 0.076210 -0.000743
v -0.047865 0.068300 0.003583
v -0.047865 0.073810 0.003583
v -0.047865 0.068300 -0.000743
v -0.047865 0.073810 -0.000743
v -0.003640 0.102059 0.066894
v -0.009152 0.109860 0.066894
v 0.003640 0.102059 0.066894
v 0.009152 0.109860 0.066894
v -0.003640 0.102059 0.013973
v -0.009152 0.109860 0.013973
v 0.003640 0.102059 0.013973
v 0.009152 0.109860 0.013973
vt 0.256884 0.354648
vt 0.256786 0.360329
vt 0.382424 0.358272
vt 0.387392 0.351324
vt 0.363258 0.345763
vt 0.347863 0.345763
vt 0.354914 0.340306
vt 0.363261 0.340310
vt 0.387392 0.351324
vt 0.382424 0.358272
vt 0.256786 0.360329
vt 0.256884 0.354648
vt 0.381831 0.335178
vt 0.371630 0.335178
vt 0.376694 0.330114
vt 0.381831 0.330114
vt 0.387163 0.345876
vt 0.387163 0.351019
vt 0.303179 0.351019
vt 0.303179 0.345876
vt 0.373009 0.365729
vt 0.377800 0.357650
vt 0.287697 0.357605
vt 0.287619 0.365729
vt 0.392890 0.335178
vt 0.392890 0.330114
vt 0.387443 0.334282
vt 0.257288 0.339187
vt 0.433296 0.318281
vt 0.443269 0.342538
vt 0.500753 0.331607
vt 0.495759 0.291562
vt 0.257288 0.339187
vt 0.387443 0.334282
vt 0.491158 0.291249
vt 0.496466 0.333699
vt 0.490903 0.331562
vt 0.486306 0.294710
vt 0.443269 0.342538
vt 0.433296 0.318281
vt 0.495759 0.291562
vt 0.500753 0.331607
vt 0.472732 0.306861
vt 0.474860 0.311798
vt 0.428148 0.332310
vt 0.425352 0.326923
vt 0.473734 0.331174
vt 0.474704 0.335481
vt 0.438143 0.344021
vt 0.436927 0.339192
vt 0.478979 0.330041
vt 0.479915 0.334333
vt 0.479505 0.304005
vt 0.481592 0.308933
vt 0.433199 0.341263
vt 0.422526 0.322386
vt 0.422526 0.322386
vt 0.433199 0.341263
vt 0.388991 0.334132
vt 0.390946 0.350103
vt 0.390946 0.350103
vt 0.388991 0.334132
vt 0.409821 0.334612
vt 0.409697 0.329260
vt 0.426883 0.328861
vt 0.427014 0.334211
vt 0.410884 0.333780
vt 0.410840 0.330335
vt 0.431169 0.330346
vt 0.431220 0.333789
vt 0.358251 0.317643
vt 0.357945 0.324086
vt 0.378444 0.324075
vt 0.378992 0.320884
vt 0.379558 0.307409
vt 0.379548 0.310833
vt 0.374136 0.310818
vt 0.374146 0.307393
vt 0.378992 0.320884
vt 0.378444 0.324075
vt 0.357945 0.324086
vt 0.358251 0.317643
vt 0.371333 0.296698
vt 0.371333 0.290619
vt 0.376745 0.290619
vt 0.376745 0.296698
vt 0.376745 0.301512
vt 0.371333 0.301512
vt 0.376433 0.316242
vt 0.363670 0.314777
vt 0.371647 0.293697
vt 0.383674 0.292920
vt 0.374158 0.303231
vt 0.379570 0.303247
vt 0.376433 0.316242
vt 0.363670 0.314777
vt 0.371333 0.317168
vt 0.376745 0.317168
vt 0.376745 0.322597
vt 0.371333 0.322597
vt 0.383674 0.292920
vt 0.371647 0.293697
vt 0.374208 0.286141
vt 0.379620 0.286157
vt 0.410927 0.337225
vt 0.431258 0.337238
vt 0.380886 0.302068
vt 0.373720 0.302068
vt 0.373720 0.287673
vt 0.380886 0.287673
vt 0.371258 0.286795
vt 0.371258 0.286795
vt 0.409944 0.339965
vt 0.427133 0.339570
vt 0.477425 0.299064
vt 0.470669 0.301901
vt 0.478054 0.325739
vt 0.472826 0.326857
vt 0.436024 0.334294
vt 0.423430 0.321165
vt 0.496722 0.293386
vt 0.501319 0.330238
vt 0.392890 0.340242
vt 0.381831 0.340242
vt 0.377800 0.357650
vt 0.287697 0.357605
vt 0.387163 0.345876
vt 0.387163 0.351019
vt 0.303179 0.351019
vt 0.303179 0.345876
vt 0.376694 0.340242
vt 0.363261 0.351217
vt 0.354914 0.351221
vt 0.324252 0.349723
vt 0.324205 0.357319
vt 0.324964 0.357323
vt 0.325011 0.349728
vt 0.337749 0.352544
vt 0.337749 0.348880
vt 0.338891 0.348880
vt 0.338891 0.352544
vt 0.324252 0.349723
vt 0.324205 0.357319
vt 0.320505 0.357296
vt 0.320552 0.349700
vt 0.338872 0.347932
vt 0.334192 0.347932
vt 0.334192 0.346473
vt 0.338872 0.346473
vt 0.338891 0.355281
vt 0.337749 0.355281
vt 0.337749 0.353497
vt 0.338891 0.353497
vt 0.338891 0.353491
vt 0.337749 0.353491
vt 0.325011 0.349728
vt 0.324964 0.357323
vt 0.320552 0.349700
vt 0.320505 0.357296
vt 0.324539 0.347139
vt 0.325023 0.347763
vt 0.336149 0.347671
vt 0.336670 0.347150
vt 0.324539 0.347139
vt 0.325023 0.347763
vt 0.337749 0.356428
vt 0.337749 0.355286
vt 0.339003 0.355286
vt 0.339003 0.356428
vt 0.329036 0.346353
vt 0.329036 0.347811
vt 0.326799 0.347811
vt 0.326799 0.346353
vt 0.336670 0.347150
vt 0.336149 0.347671
vt 0.324519 0.347932
vt 0.324519 0.346473
vt 0.331993 0.346473
vt 0.331993 0.347932
vt 0.335890 0.346353
vt 0.335890 0.347811
vt 0.337783 0.350913
vt 0.338247 0.350340
vt 0.338247 0.350340
vt 0.337783 0.350913
vt 0.334185 0.346473
vt 0.334185 0.347932
vt 0.327941 0.349485
vt 0.327941 0.356656
vt 0.326488 0.356760
vt 0.326488 0.349589
vt 0.328071 0.356652
vt 0.328071 0.349481
vt 0.329528 0.349481
vt 0.329528 0.356652
vt 0.324905 0.356656
vt 0.324905 0.349485
vt 0.326357 0.349589
vt 0.326357 0.356760
vt 0.329659 0.356652
vt 0.329659 0.349481
vt 0.331115 0.349481
vt 0.331115 0.356652
vt 0.331246 0.349222
vt 0.332703 0.349222
vt 0.332703 0.350655
vt 0.331246 0.350655
vt 0.261459 0.363676
vt 0.249914 0.363676
vt 0.249914 0.350438
vt 0.261459 0.350438
vt 0.252293 0.363804
vt 0.252293 0.351236
vt 0.265531 0.351236
vt 0.265530 0.363804
vt 0.263723 0.361857
vt 0.276849 0.361857
vt 0.276849 0.350438
vt 0.263723 0.350438
vt 0.267486 0.362614
vt 0.254918 0.362614
vt 0.254918 0.351195
vt 0.267486 0.351195
vt 0.261925 0.360738
vt 0.252500 0.360738
vt 0.252500 0.351714
vt 0.261925 0.351714
vt 0.264010 0.360738
vt 0.264010 0.351714
vt 0.261459 0.363676
vt 0.261459 0.350438
vt 0.276849 0.361857
vt 0.263723 0.361857
vt 0.263723 0.350438
vt 0.276849 0.350438
vt 0.249914 0.363676
vt 0.249914 0.350438
vt 0.272299 0.360738
vt 0.272299 0.351714
vt 0.252036 0.338130
vt 0.252036 0.355391
vt 0.258296 0.355391
vt 0.258296 0.338130
vt 0.266535 0.361831
vt 0.252718 0.361831
vt 0.252718 0.352656
vt 0.266535 0.352656
vt 0.191194 0.343752
vt 0.191194 0.355391
vt 0.187978 0.355391
vt 0.187978 0.345626
vt 0.263612 0.363523
vt 0.252977 0.363523
vt 0.252977 0.352964
vt 0.263612 0.352964
vt 0.206348 0.344495
vt 0.206348 0.354141
vt 0.203960 0.354141
vt 0.203960 0.344495
vt 0.251550 0.348386
vt 0.251550 0.337568
vt 0.253865 0.337568
vt 0.253865 0.348386
vt 0.206407 0.348386
vt 0.206407 0.337568
vt 0.210912 0.337568
vt 0.210912 0.348386
vt 0.247397 0.344495
vt 0.247397 0.354141
vt 0.243380 0.354141
vt 0.243380 0.344495
vt 0.258296 0.338131
vt 0.258296 0.355391
vt 0.252036 0.355391
vt 0.252036 0.338131
vt 0.239870 0.343752
vt 0.239870 0.355391
vt 0.191194 0.343752
vt 0.191194 0.355391
vt 0.219667 0.337568
vt 0.219667 0.348386
vt 0.234779 0.354141
vt 0.234779 0.344495
vt 0.239870 0.355391
vt 0.239870 0.343752
vt 0.187978 0.345626
vt 0.187978 0.355391
vt 0.186803 0.356515
vt 0.186803 0.368735
vt 0.233959 0.368735
vt 0.233959 0.356515
vt 0.233959 0.368735
vt 0.233959 0.356515
vt 0.236363 0.356515
vt 0.236363 0.367581
vt 0.186803 0.356515
vt 0.186803 0.368735
vt 0.184014 0.366523
vt 0.184014 0.356515
vt 0.256387 0.361618
vt 0.256387 0.367301
vt 0.247044 0.367301
vt 0.247044 0.361618
vt 0.240207 0.348785
vt 0.240207 0.338132
vt 0.242013 0.338132
vt 0.242013 0.348785
vt 0.209549 0.343809
vt 0.209549 0.354761
vt 0.207180 0.354761
vt 0.207180 0.343809
vt 0.240937 0.343809
vt 0.240937 0.354761
vt 0.209676 0.348785
vt 0.209676 0.338132
vt 0.184014 0.356515
vt 0.184014 0.366523
vt 0.247044 0.368148
vt 0.247044 0.361864
vt 0.256387 0.361864
vt 0.256387 0.368148
vt 0.208120 0.348785
vt 0.208120 0.338132
vt 0.242712 0.343809
vt 0.242712 0.354761
vt 0.236363 0.367581
vt 0.236363 0.356515
vt 0.162965 0.363270
vt 0.163471 0.367587
vt 0.156374 0.367148
vt 0.156391 0.363027
vt 0.083387 0.349742
vt 0.182547 0.349742
vt 0.182547 0.352800
vt 0.083387 0.352800
vt 0.146861 0.364972
vt 0.176422 0.364654
vt 0.175908 0.367941
vt 0.146048 0.368116
vt 0.182547 0.355857
vt 0.083387 0.355857
vt 0.146865 0.364271
vt 0.175942 0.365251
vt 0.175378 0.368531
vt 0.146005 0.367394
vt 0.182547 0.352800
vt 0.083387 0.352800
vt 0.145956 0.367312
vt 0.175343 0.367954
vt 0.175853 0.364664
vt 0.146763 0.364176
vt 0.146015 0.367993
vt 0.175875 0.368252
vt 0.176436 0.364973
vt 0.146874 0.364861
vt 0.163669 0.363682
vt 0.164225 0.367964
vt 0.155509 0.367681
vt 0.155426 0.363584
vt 0.164082 0.367926
vt 0.163566 0.363605
vt 0.155352 0.363411
vt 0.155402 0.367516
vt 0.163360 0.367589
vt 0.162810 0.363317
vt 0.156201 0.363158
vt 0.156222 0.367271
vt 0.102301 0.352715
vt 0.164802 0.352715
vt 0.164802 0.355231
vt 0.102301 0.355231
vt 0.102551 0.352982
vt 0.165052 0.352982
vt 0.165052 0.355497
vt 0.102551 0.355497
vt 0.164427 0.355614
vt 0.101926 0.355614
vt 0.101926 0.353099
vt 0.164427 0.353099
vt 0.132824 0.351577
vt 0.132125 0.353755
vt 0.131426 0.351577
vt 0.150119 0.340840
vt 0.150119 0.346561
vt 0.145114 0.345674
vt 0.144343 0.339816
vt 0.143372 0.347906
vt 0.143372 0.342011
vt 0.146804 0.342011
vt 0.146804 0.347906
vt 0.140017 0.345301
vt 0.140788 0.339443
vt 0.145792 0.338556
vt 0.145792 0.344277
vt 0.139630 0.347724
vt 0.139630 0.342003
vt 0.143063 0.342003
vt 0.143063 0.347724
vt 0.147113 0.341974
vt 0.150545 0.341974
vt 0.150545 0.347041
vt 0.147113 0.347041
vt 0.141711 0.356775
vt 0.135269 0.356775
vt 0.135269 0.349521
vt 0.141711 0.351777
vt 0.134974 0.357041
vt 0.134974 0.351071
vt 0.138365 0.351071
vt 0.138365 0.357041
vt 0.131869 0.349572
vt 0.138311 0.347316
vt 0.138311 0.354571
vt 0.131869 0.354571
vt 0.131278 0.356578
vt 0.131278 0.351051
vt 0.134669 0.351051
vt 0.134669 0.356578
vt 0.138670 0.351027
vt 0.142061 0.351027
vt 0.142061 0.356026
vt 0.138670 0.356026
vt 0.141017 0.349980
vt 0.141017 0.357353
vt 0.137341 0.357353
vt 0.133469 0.349980
vt 0.139268 0.349316
vt 0.139268 0.357422
vt 0.137863 0.357422
vt 0.137863 0.349316
vt 0.142977 0.349668
vt 0.139105 0.357041
vt 0.135429 0.357041
vt 0.135429 0.349668
vt 0.137446 0.359137
vt 0.137446 0.351544
vt 0.138851 0.351544
vt 0.138851 0.359137
vt 0.139105 0.358989
vt 0.135429 0.358989
vt 0.140010 0.356242
vt 0.136416 0.356242
vt 0.136416 0.353112
vt 0.140010 0.353112
vt 0.141017 0.359301
vt 0.137341 0.359301
vt 0.136351 0.349767
vt 0.139945 0.349767
vt 0.140363 0.359161
vt 0.136769 0.359161
vt 0.340263 0.350199
vt 0.339420 0.357241
vt 0.342634 0.357057
vt 0.341139 0.349311
vt 0.340495 0.349148
vt 0.340495 0.342277
vt 0.342323 0.342277
vt 0.342323 0.349148
vt 0.341139 0.349311
vt 0.342634 0.357057
vt 0.339420 0.357241
vt 0.340263 0.350199
vt 0.342327 0.348454
vt 0.342327 0.342277
vt 0.344154 0.342277
vt 0.344154 0.348454
vt 0.342323 0.353465
vt 0.340495 0.353465
vt 0.336501 0.347561
vt 0.336501 0.347561
vt 0.344154 0.352456
vt 0.342327 0.352456
vt 0.132540 0.349742
vt 0.142223 0.349742
vt 0.142223 0.351644
vt 0.132540 0.351644
vt 0.142223 0.355447
vt 0.132540 0.355448
vt 0.142223 0.357349
vt 0.132540 0.357349
vt 0.142620 0.357392
vt 0.132937 0.357392
vt 0.132937 0.355490
vt 0.142620 0.355490
vt 0.132937 0.351686
vt 0.142620 0.351686
vt 0.132937 0.349785
vt 0.142620 0.349785
vt 0.051219 0.293330
vt 0.045640 0.298909
vt 0.045640 0.287751
vt 0.056798 0.287751
vt 0.056798 0.298909
vt 0.137538 0.353052
vt 0.138921 0.349758
vt 0.140303 0.353052
vt 0.138921 0.356346
vt 0.136155 0.356346
vt 0.134772 0.353052
vt 0.136155 0.349758
vt 0.137935 0.352792
vt 0.136552 0.356086
vt 0.135169 0.352792
vt 0.139317 0.356086
vt 0.140700 0.352792
vt 0.139317 0.349498
vt 0.136552 0.349498
vt 0.242274 0.353860
vt 0.252855 0.353860
vt 0.252855 0.355182
vt 0.242274 0.355182
vt 0.252855 0.357828
vt 0.242274 0.357828
vt 0.252855 0.359150
vt 0.242274 0.359150
vt 0.252855 0.359150
vt 0.242274 0.359150
vt 0.242274 0.357828
vt 0.252855 0.357828
vt 0.242274 0.355182
vt 0.252855 0.355182
vt 0.242274 0.353860
vt 0.252855 0.353860
vt 0.346272 0.345976
vt 0.347007 0.335716
vt 0.348694 0.335716
vt 0.349428 0.345976
vt 0.353840 0.336914
vt 0.352516 0.336914
vt 0.352516 0.335326
vt 0.353840 0.335326
vt 0.345254 0.335716
vt 0.345988 0.345976
vt 0.342833 0.345976
vt 0.343567 0.335716
vt 0.349630 0.335717
vt 0.350954 0.335717
vt 0.350954 0.346001
vt 0.349630 0.346001
vt 0.351073 0.335717
vt 0.352397 0.335717
vt 0.352397 0.346001
vt 0.351073 0.346001
vt 0.279646 0.502265
vt 0.279646 0.504260
vt 0.290700 0.504260
vt 0.290700 0.502265
vt 0.261989 0.498716
vt 0.255477 0.503318
vt 0.255477 0.488037
vt 0.261989 0.492638
vt 0.272216 0.505283
vt 0.272216 0.501543
vt 0.283029 0.501543
vt 0.283029 0.505283
vt 0.279646 0.502265
vt 0.290700 0.502265
vt 0.290700 0.504260
vt 0.279646 0.504260
vn -1.0000 -0.0000 0.0000
vn -0.0246 0.6042 -0.7964
vn 1.0000 0.0000 0.0000
vn 0.0000 0.0000 1.0000
vn 0.0000 -0.9994 0.0345
vn -0.7052 0.7090 -0.0093
vn 0.0000 -0.1858 -0.9826
vn -0.2572 -0.9156 0.3092
vn 0.2594 0.9550 -0.1438
vn 0.0000 0.9671 0.2545
vn 0.0000 -0.9382 0.3462
vn 0.0000 0.9808 -0.1952
vn 0.0000 0.1262 -0.9920
vn 0.0000 0.0284 0.9996
vn 0.0000 -0.8842 0.4672
vn 0.0000 -0.4823 -0.8760
vn 0.0000 0.0558 0.9984
vn 0.0000 -0.3871 0.9220
vn 0.0000 0.2965 -0.9550
vn 0.0000 -0.8966 -0.4429
vn -0.2594 0.9550 -0.1438
vn 0.2572 -0.9156 0.3092
vn 0.7052 0.7090 -0.0093
vn 0.0246 0.6042 -0.7964
vn 0.0000 0.0000 -1.0000
vn 0.0000 -1.0000 0.0000
vn 0.0000 -0.1042 0.9946
vn 0.0000 0.4557 0.8901
vn 0.0000 -1.0000 0.0053
vn 0.0000 0.9999 -0.0145
vn 0.0000 -0.4487 -0.8937
vn 0.0000 0.0963 -0.9954
vn 0.0000 -0.0963 0.9954
vn 0.0000 -0.9858 -0.1679
vn 0.0000 1.0000 0.0000
vn 0.0000 0.7796 -0.6263
vn 0.0000 -0.8640 0.5034
vn 0.0000 -0.9078 0.4195
vn 0.0000 0.7835 0.6213
vn 0.0000 0.9015 -0.4327
vn 0.7616 -0.3878 -0.5192
vn 0.7071 -0.7071 0.0000
vn 0.6905 0.7233 0.0009
vn 0.7071 0.7071 0.0000
vn 0.6903 -0.7235 0.0009
vn -0.7071 0.7071 0.0000
vn -0.6903 -0.7235 0.0009
vn -0.6905 0.7233 0.0009
vn -0.7071 -0.7071 0.0000
vn 0.7512 0.4138 0.5143
vn -0.7512 0.4138 0.5143
vn -0.7616 -0.3878 -0.5192
vn 0.8660 -0.5000 0.0000
vn -0.8660 -0.5000 0.0000
vn 0.0000 0.3108 -0.9505
vn 0.0000 -0.2020 0.9794
vn 0.0000 -0.3780 -0.9258
vn 0.0000 0.3983 -0.9173
vn 0.8855 -0.4647 0.0000
vn -0.8855 -0.4647 0.0000
vn 0.0000 -0.0098 -1.0000
vn 0.0000 -0.2955 0.9553
vn 0.0000 -0.8568 -0.5156
vn 0.0000 0.7021 0.7121
vn 0.5000 -0.8660 0.0000
vn 0.5000 0.8660 0.0000
vn -0.5000 0.8660 0.0000
vn -0.5000 -0.8660 0.0000
vn -0.0673 -0.9977 0.0000
vn -0.0673 0.9977 0.0000
vn 0.8167 -0.5771 0.0000
vn -0.8167 -0.5771 0.0000
usemtl ps1_weapons
s off
f 9/1/1 2/2/1 4/3/1 10/4/1
f 48/5/2 44/6/2 8/7/2 11/8/2
f 11/9/3 8/10/3 6/11/3 12/12/3
f 47/13/4 46/14/4 2/15/4 9/16/4
f 42/17/5 7/18/5 5/19/5 45/20/5
f 44/21/6 4/22/6 2/23/6 46/24/6
f 45/25/4 47/13/4 9/16/4 1/26/4
f 7/27/3 11/9/3 12/12/3 5/28/3
f 18/29/1 17/30/1 15/31/1 13/32/1
f 1/33/1 9/1/1 10/4/1 3/34/1
f 49/35/7 50/36/7 16/37/7 14/38/7
f 20/39/3 19/40/3 14/41/3 16/42/3
f 52/43/8 18/44/8 13/45/8 49/46/8
f 51/47/9 20/48/9 16/49/9 50/50/9
f 54/51/10 22/52/10 20/48/10 51/47/10
f 53/53/11 21/54/11 18/44/11 52/43/11
f 22/55/3 24/56/3 19/40/3 20/39/3
f 21/57/1 23/58/1 17/30/1 18/29/1
f 3/59/1 10/60/1 23/58/1 21/57/1
f 11/61/3 7/62/3 24/56/3 22/55/3
f 42/63/11 3/64/11 21/65/11 53/66/11
f 48/67/12 11/68/12 22/69/12 54/70/12
f 25/71/1 26/72/1 28/73/1 27/74/1
f 27/75/13 28/76/13 32/77/13 31/78/13
f 31/79/3 32/80/3 30/81/3 29/82/3
f 29/83/14 30/84/14 26/85/14 25/86/14
f 29/83/15 25/86/15 33/87/15 35/88/15
f 36/89/3 35/90/3 39/91/3 40/92/3
f 27/75/16 31/78/16 36/93/16 34/94/16
f 25/71/1 27/74/1 34/95/1 33/96/1
f 31/79/3 29/82/3 35/90/3 36/89/3
f 39/97/17 37/98/17 41/99/17 43/100/17
f 33/96/1 34/95/1 38/101/1 37/102/1
f 35/88/18 33/87/18 37/98/18 39/97/18
f 34/94/19 36/93/19 40/103/19 38/104/19
f 10/105/12 48/67/12 54/70/12 23/106/12
f 38/107/20 40/108/20 43/109/20 41/110/20
f 40/92/3 39/91/3 43/111/3
f 37/102/1 38/101/1 41/112/1
f 7/113/11 42/63/11 53/66/11 24/114/11
f 24/115/11 53/53/11 52/43/11 19/116/11
f 23/117/10 54/51/10 51/47/10 17/118/10
f 17/118/21 51/47/21 50/50/21 15/119/21
f 19/116/22 52/43/22 49/46/22 14/120/22
f 13/121/7 15/122/7 50/36/7 49/35/7
f 5/123/4 12/124/4 47/13/4 45/25/4
f 8/125/23 44/21/23 46/24/23 6/126/23
f 3/127/5 42/128/5 45/129/5 1/130/5
f 12/124/4 6/131/4 46/14/4 47/13/4
f 10/132/24 4/133/24 44/6/24 48/5/24
f 63/134/1 64/135/1 58/136/1 57/137/1
f 57/138/25 58/139/25 62/140/25 61/141/25
f 65/142/3 66/143/3 60/144/3 59/145/3
f 59/146/4 60/147/4 56/148/4 55/149/4
f 63/150/26 65/151/26 59/152/26 55/153/26
f 57/138/25 61/141/25 68/154/25 67/155/25
f 61/156/3 62/157/3 66/143/3 65/142/3
f 55/158/1 56/159/1 64/135/1 63/134/1
f 69/160/1 67/161/1 76/162/1 74/163/1
f 61/156/3 65/142/3 70/164/3 68/165/3
f 63/134/1 57/137/1 67/161/1 69/160/1
f 65/166/27 63/167/27 69/168/27 70/169/27
f 76/170/28 75/171/28 77/172/28 78/173/28
f 68/165/3 70/164/3 73/174/3 75/175/3
f 70/176/29 69/177/29 74/178/29 73/179/29
f 67/180/30 68/181/30 75/171/30 76/170/30
f 74/163/1 76/162/1 78/182/1 71/183/1
f 75/175/3 73/174/3 72/184/3 77/185/3
f 73/179/31 74/178/31 71/186/31 72/187/31
f 79/188/1 80/189/1 82/190/1 81/191/1
f 81/192/32 82/193/32 86/194/32 85/195/32
f 85/196/3 86/197/3 84/198/3 83/199/3
f 83/200/33 84/201/33 80/202/33 79/203/33
f 81/204/34 85/205/34 83/206/34 79/207/34
f 101/208/3 89/209/3 90/210/3 99/211/3
f 89/212/4 93/213/4 94/214/4 90/215/4
f 97/216/1 91/217/1 92/218/1 98/219/1
f 91/220/25 87/221/25 88/222/25 92/223/25
f 95/224/35 87/225/35 91/226/35 97/227/35
f 101/228/36 95/224/36 97/227/36 100/229/36
f 100/230/1 97/216/1 98/219/1 102/231/1
f 87/232/3 95/233/3 96/234/3 88/235/3
f 93/236/1 100/230/1 102/231/1 94/237/1
f 89/238/35 101/228/35 100/229/35 93/239/35
f 95/233/3 101/208/3 99/211/3 96/234/3
f 111/240/1 112/241/1 106/242/1 105/243/1
f 105/244/25 106/245/25 110/246/25 109/247/25
f 122/248/3 120/249/3 108/250/3 107/251/3
f 107/252/4 108/253/4 104/254/4 103/255/4
f 119/256/37 122/257/37 107/258/37 103/259/37
f 120/260/35 121/261/35 104/262/35 108/263/35
f 110/264/35 106/265/35 112/266/35 114/267/35
f 105/268/26 109/269/26 113/270/26 111/271/26
f 109/272/3 110/273/3 114/274/3 113/275/3
f 115/276/1 117/277/1 112/241/1 111/240/1
f 119/278/1 121/279/1 117/277/1 115/276/1
f 114/267/35 112/266/35 117/280/35 116/281/35
f 111/271/38 113/270/38 118/282/38 115/283/38
f 113/275/3 114/274/3 116/284/3 118/285/3
f 103/286/1 104/287/1 121/279/1 119/278/1
f 116/281/35 117/280/35 121/261/35 120/260/35
f 115/283/26 118/282/26 122/257/26 119/256/26
f 118/285/3 116/284/3 120/249/3 122/248/3
f 131/288/1 132/289/1 126/290/1 125/291/1
f 130/292/3 129/293/3 137/294/3 138/295/3
f 133/296/3 134/297/3 128/298/3 127/299/3
f 127/300/4 128/301/4 124/302/4 123/303/4
f 131/304/26 133/305/26 127/306/26 123/307/26
f 134/308/39 132/309/39 124/310/39 128/311/39
f 130/312/35 126/313/35 132/309/35 134/308/35
f 125/314/26 129/315/26 133/305/26 131/304/26
f 129/293/3 130/292/3 134/297/3 133/296/3
f 123/316/1 124/317/1 132/289/1 131/288/1
f 135/318/25 136/319/25 138/320/25 137/321/25
f 129/315/26 125/314/26 135/322/26 137/323/26
f 126/313/40 130/312/40 138/324/40 136/325/40
f 125/291/1 126/290/1 136/326/1 135/327/1
f 140/328/41 146/329/41 153/330/41 152/331/41
f 202/332/42 141/333/42 142/334/42 203/335/42
f 146/336/43 147/337/43 149/338/43 148/339/43
f 203/335/44 142/334/44 144/340/44 204/341/44
f 140/342/45 139/343/45 147/344/45 146/345/45
f 204/341/46 144/340/46 145/346/46 205/347/46
f 150/348/47 151/349/47 139/350/47 140/351/47
f 148/352/48 149/353/48 151/354/48 150/355/48
f 205/347/49 145/346/49 141/333/49 202/332/49
f 146/356/50 148/357/50 154/358/50 153/359/50
f 148/360/51 150/361/51 155/362/51 154/363/51
f 150/364/52 140/365/52 152/366/52 155/367/52
f 156/368/53 157/369/53 159/370/53 158/371/53
f 158/372/35 159/373/35 161/374/35 160/375/35
f 160/376/54 161/377/54 157/378/54 156/379/54
f 156/380/4 158/381/4 160/382/4
f 162/383/1 163/384/1 165/385/1 164/386/1
f 164/387/55 165/388/55 169/389/55 168/390/55
f 168/391/3 169/392/3 167/393/3 166/394/3
f 166/395/56 167/396/56 163/397/56 162/398/56
f 164/399/26 168/400/26 166/401/26 162/402/26
f 170/403/1 171/404/1 173/405/1 172/406/1
f 172/407/57 173/408/57 177/409/57 176/410/57
f 176/411/3 177/412/3 175/413/3 174/414/3
f 174/415/4 175/416/4 171/417/4 170/418/4
f 172/419/26 176/420/26 174/421/26 170/422/26
f 178/423/1 179/424/1 181/425/1 180/426/1
f 180/427/58 181/428/58 185/429/58 184/430/58
f 184/431/3 185/432/3 183/433/3 182/434/3
f 182/435/4 183/436/4 179/437/4 178/438/4
f 183/433/59 185/432/59 189/439/59 188/440/59
f 189/441/35 187/442/35 186/443/35 188/444/35
f 181/425/60 179/424/60 186/445/60 187/446/60
f 179/437/4 183/436/4 188/447/4 186/448/4
f 185/429/25 181/428/25 187/449/25 189/450/25
f 190/451/1 191/452/1 193/453/1 192/454/1
f 192/455/61 193/456/61 197/457/61 196/458/61
f 196/459/3 197/460/3 195/461/3 194/462/3
f 194/463/62 195/464/62 191/465/62 190/466/62
f 192/455/63 196/458/63 199/467/63 198/468/63
f 190/451/1 192/454/1 198/469/1
f 196/459/3 194/462/3 199/470/3
f 194/463/64 190/466/64 198/471/64 199/472/64
f 206/473/65 213/474/65 212/475/65 207/476/65
f 207/476/3 212/475/3 214/477/3 208/478/3
f 208/478/66 214/477/66 215/479/66 209/480/66
f 209/481/67 215/482/67 216/483/67 210/484/67
f 210/484/1 216/483/1 217/485/1 211/486/1
f 211/486/68 217/485/68 213/487/68 206/488/68
f 143/489/4 202/490/4 203/491/4
f 143/489/4 203/491/4 204/492/4
f 143/489/4 204/492/4 205/493/4
f 143/489/4 205/493/4 202/490/4
f 200/494/4 206/495/4 207/496/4
f 200/494/4 207/496/4 208/497/4
f 200/494/4 208/497/4 209/498/4
f 200/494/4 209/498/4 210/499/4
f 200/494/4 210/499/4 211/500/4
f 200/494/4 211/500/4 206/495/4
f 201/501/25 212/502/25 213/503/25
f 201/501/25 214/504/25 212/502/25
f 201/501/25 215/505/25 214/504/25
f 201/501/25 216/506/25 215/505/25
f 201/501/25 217/507/25 216/506/25
f 201/501/25 213/503/25 217/507/25
f 218/508/65 225/509/65 224/510/65 219/511/65
f 219/511/3 224/510/3 226/512/3 220/513/3
f 220/513/66 226/512/66 227/514/66 221/515/66
f 221/516/67 227/517/67 228/518/67 222/519/67
f 222/519/1 228/518/1 229/520/1 223/521/1
f 223/521/68 229/520/68 225/522/68 218/523/68
f 232/524/25 236/525/25 237/526/25 233/527/25
f 236/528/1 234/529/1 235/530/1 237/531/1
f 234/532/4 230/533/4 231/534/4 235/535/4
f 232/536/69 230/537/69 234/538/69 236/539/69
f 237/540/70 235/541/70 231/542/70 233/543/70
f 244/544/71 245/545/71 241/546/71 240/547/71
f 240/548/4 241/549/4 239/550/4 238/551/4
f 245/552/35 243/553/35 239/554/35 241/555/35
f 244/544/25 242/556/25 243/553/25 245/545/25
f 238/557/72 239/558/72 243/559/72 242/556/72
o ak-47_magazine_Cube.030
v -0.012671 -0.013735 -0.014236
v -0.012671 0.046051 -0.022444
v -0.012671 -0.033282 -0.079692
v -0.012671 0.039816 -0.092336
v 0.012671 -0.013735 -0.014236
v 0.012671 0.046051 -0.022444
v 0.012671 -0.033282 -0.079692
v 0.012671 0.039816 -0.092336
v -0.012671 -0.062115 0.011132
v -0.012671 -0.096699 -0.044216
v 0.012671 -0.062115 0.011132
v 0.012671 -0.096699 -0.044216
v -0.012671 -0.105846 0.057563
v -0.012671 -0.158425 0.018731
v 0.012671 -0.105846 0.057563
v 0.012671 -0.158425 0.018731
vt 0.278207 0.313055
vt 0.285053 0.336965
vt 0.309445 0.333276
vt 0.304452 0.303435
vt 0.283448 0.306838
vt 0.283448 0.312717
vt 0.281440 0.312717
vt 0.281440 0.306838
vt 0.304452 0.303435
vt 0.309445 0.333276
vt 0.285053 0.336965
vt 0.278207 0.313055
vt 0.282255 0.304475
vt 0.282255 0.310620
vt 0.279674 0.310620
vt 0.279674 0.304475
vt 0.279674 0.298911
vt 0.282255 0.298911
vt 0.290314 0.295406
vt 0.287477 0.295406
vt 0.287477 0.287552
vt 0.290314 0.287552
vt 0.288377 0.278422
vt 0.266637 0.293930
vt 0.246580 0.277231
vt 0.261125 0.254785
vt 0.281440 0.301079
vt 0.283448 0.301079
vt 0.288377 0.278422
vt 0.266637 0.293930
vt 0.277634 0.289209
vt 0.277634 0.291462
vt 0.271823 0.291462
vt 0.271823 0.289209
vt 0.261125 0.254785
vt 0.246580 0.277231
vt 0.279674 0.292416
vt 0.282255 0.292416
vt 0.281440 0.294093
vt 0.283448 0.294093
vn -1.0000 -0.0000 0.0000
vn 0.0000 -0.1705 -0.9854
vn 1.0000 -0.0000 0.0000
vn 0.0000 0.1360 0.9907
vn 0.0000 0.4644 0.8856
vn 0.0000 0.9960 -0.0889
vn 0.0000 -0.4882 -0.8727
vn 0.0000 -0.5941 0.8044
vn 0.0000 0.7280 0.6856
vn 0.0000 -0.7140 -0.7001
usemtl ps1_weapons
s off
f 246/560/73 247/561/73 249/562/73 248/563/73
f 248/564/74 249/565/74 253/566/74 252/567/74
f 252/568/75 253/569/75 251/570/75 250/571/75
f 250/572/76 251/573/76 247/574/76 246/575/76
f 250/572/77 246/575/77 254/576/77 256/577/77
f 253/578/78 249/579/78 247/580/78 251/581/78
f 257/582/75 256/583/75 260/584/75 261/585/75
f 248/564/79 252/567/79 257/586/79 255/587/79
f 246/560/73 248/563/73 255/588/73 254/589/73
f 252/568/75 250/571/75 256/583/75 257/582/75
f 259/590/80 261/591/80 260/592/80 258/593/80
f 254/589/73 255/588/73 259/594/73 258/595/73
f 256/577/81 254/576/81 258/596/81 260/597/81
f 255/587/82 257/586/82 261/598/82 259/599/82
