# Blender v2.83.16 OBJ File: 'ps1 weapons.blend'
# www.blender.org
mtllib colt 1911.mtl
o colt_1911_Cube.017
v -0.009225 0.038382 0.064204
v -0.009225 0.055841 0.072811
v -0.009225 0.038382 -0.079135
v -0.009225 0.055841 -0.072987
v 0.009225 0.038382 0.064204
v 0.009225 0.055841 0.072811
v 0.009225 0.038382 -0.079135
v 0.009225 0.055841 -0.072987
v -0.009225 0.044227 0.072811
v -0.009225 0.044227 -0.079135
v 0.009225 0.044227 -0.079135
v 0.009225 0.044227 0.072811
v -0.009225 0.055841 0.100566
v 0.009225 0.055841 0.100566
v -0.009225 0.044227 0.100566
v 0.009225 0.044227 0.100566
v -0.009225 0.025912 0.059087
v -0.009225 0.038457 0.060673
v -0.009225 0.025912 -0.078451
v -0.009225 0.038457 -0.078451
v 0.009225 0.025912 0.059087
v 0.009225 0.038457 0.060673
v 0.009225 0.025912 -0.078451
v 0.009225 0.038457 -0.078451
v -0.009225 0.025912 -0.026538
v -0.009225 0.038457 -0.025940
v 0.009225 0.025912 -0.026538
v 0.009225 0.038457 -0.025940
v -0.009225 -0.053428 -0.102166
v 0.009225 -0.053428 -0.102166
v -0.009225 -0.060455 -0.054351
v 0.009225 -0.060455 -0.054351
v 0.009225 0.014074 -0.072180
v -0.009225 0.014074 -0.072180
v 0.009225 0.016210 -0.030083
v -0.009225 0.016210 -0.030083
v 0.009225 0.001182 -0.077907
v 0.009225 0.001568 -0.034718
v -0.009225 0.001182 -0.077907
v -0.009225 0.001568 -0.034718
v 0.009225 0.004252 -0.026545
v -0.009225 0.004252 -0.026545
v -0.005361 0.022643 -0.086025
v -0.005361 0.031783 -0.090162
v -0.005361 0.024042 -0.098001
v -0.005361 0.028940 -0.098491
v 0.005361 0.022643 -0.086025
v 0.005361 0.031783 -0.090162
v 0.005361 0.024042 -0.098001
v 0.005361 0.028940 -0.098491
v -0.005361 0.012567 -0.077942
v -0.005361 0.034245 -0.080216
v 0.005361 0.012567 -0.077942
v 0.005361 0.034245 -0.080216
v -0.005361 0.007603 -0.071209
v -0.005361 0.033939 -0.073906
v 0.005361 0.007603 -0.071209
v 0.005361 0.033939 -0.073906
v -0.005361 -0.007949 -0.088055
v 0.005361 -0.007949 -0.088055
v -0.005361 -0.009695 -0.075984
v 0.005361 -0.009695 -0.075984
v -0.005689 -0.013112 -0.076914
v -0.005689 -0.009622 -0.085214
v -0.005689 -0.052733 -0.100979
v -0.005689 -0.044389 -0.104740
v 0.005689 -0.013112 -0.076914
v 0.005689 -0.009622 -0.085214
v 0.005689 -0.052733 -0.100979
v 0.005689 -0.044389 -0.104740
v -0.003971 0.043406 -0.076594
v -0.003971 0.055797 -0.068616
v -0.003971 0.053072 -0.081754
v -0.003971 0.055308 -0.080556
v 0.003971 0.043406 -0.076594
v 0.003971 0.055797 -0.068616
v 0.003971 0.053072 -0.081754
v 0.003971 0.055308 -0.080556
v -0.003971 0.055491 -0.086256
v -0.003971 0.058422 -0.084491
v 0.003971 0.055491 -0.086256
v 0.003971 0.058422 -0.084491
v -0.003971 0.056982 -0.088731
v 0.003971 0.056982 -0.088731
v -0.000000 0.026651 0.099424
v -0.000000 0.026651 0.056193
v 0.008753 0.031705 0.099424
v 0.008753 0.031705 0.056193
v 0.008753 0.046784 0.099424
v 0.008753 0.046784 0.056193
v -0.000000 0.046866 0.099424
v -0.008753 0.046784 0.099424
v -0.008753 0.046784 0.056193
v -0.008753 0.031705 0.099424
v -0.008753 0.031705 0.056193
v -0.006665 0.020250 0.011844
v -0.006665 0.029223 0.018670
v -0.006665 0.020250 0.006454
v -0.006665 0.029223 -0.000372
v 0.006665 0.020250 0.011844
v 0.006665 0.029223 0.018670
v 0.006665 0.020250 0.006454
v 0.006665 0.029223 -0.000372
v -0.006665 0.006865 0.010404
v -0.006665 0.007204 0.007471
v 0.006665 0.006865 0.010404
v 0.006665 0.007204 0.007471
v -0.006665 -0.001100 0.001878
v -0.006665 0.001303 0.000162
v 0.006665 -0.001100 0.001878
v 0.006665 0.001303 0.000162
v -0.006665 0.000183 -0.021298
v -0.006665 0.002862 -0.020058
v 0.006665 0.000183 -0.021298
v 0.006665 0.002862 -0.020058
v -0.006665 -0.000167 -0.040703
v -0.006665 0.017337 -0.030906
v 0.006665 -0.000167 -0.040703
v 0.006665 0.017337 -0.030906
v -0.004013 0.001423 -0.013960
v -0.004013 0.031785 -0.013960
v -0.004013 0.001423 -0.044322
v -0.004013 0.031785 -0.044322
v 0.004013 0.001423 -0.013960
v 0.004013 0.031785 -0.013960
v 0.004013 0.001423 -0.044322
v 0.004013 0.031785 -0.044322
v -0.004013 0.013041 -0.017772
v -0.004013 0.012703 -0.044322
v 0.004013 0.012703 -0.044322
v 0.004013 0.013041 -0.017772
v -0.002100 0.055493 0.099967
v -0.002100 0.063387 0.094741
v -0.000000 0.059637 -0.072987
v -0.002100 0.056694 0.081280
v 0.002100 0.055493 0.099967
v 0.002100 0.063387 0.094741
v -0.000000 0.038382 -0.079135
v 0.002100 0.056694 0.081280
v -0.000000 0.038382 0.064204
v -0.000000 0.059637 0.072811
v -0.000000 0.044227 0.072811
v -0.000000 0.044227 -0.079135
v -0.000000 0.059637 0.100566
v -0.000000 0.044227 0.100566
v -0.004638 0.057709 -0.056391
v -0.004638 0.065318 -0.059960
v -0.004638 0.057709 -0.065667
v -0.004638 0.065318 -0.062097
v 0.004638 0.057709 -0.056391
v 0.004638 0.065318 -0.059960
v 0.004638 0.057709 -0.065667
v 0.004638 0.065318 -0.062097
v 0.000000 0.038941 0.103106
v 0.000000 0.038941 0.095462
v 0.007645 0.046585 0.103106
v 0.007645 0.046585 0.095462
v -0.000000 0.054230 0.103106
v -0.000000 0.054230 0.095462
v -0.007645 0.046585 0.103106
v -0.007645 0.046585 0.095462
vt 0.490197 0.080302
vt 0.490197 0.085351
vt 0.553586 0.085351
vt 0.555697 0.080302
vt 0.558447 0.078715
vt 0.557475 0.084271
vt 0.560797 0.083641
vt 0.561540 0.079244
vt 0.555697 0.080302
vt 0.553586 0.085351
vt 0.490197 0.085351
vt 0.490197 0.080302
vt 0.478130 0.085351
vt 0.478130 0.080302
vt 0.506445 0.081328
vt 0.506445 0.078901
vt 0.544165 0.078901
vt 0.544165 0.081328
vt 0.553264 0.080662
vt 0.553264 0.083509
vt 0.493383 0.083509
vt 0.493383 0.080662
vt 0.546903 0.081328
vt 0.546903 0.083755
vt 0.544165 0.083755
vt 0.555697 0.077761
vt 0.493939 0.077761
vt 0.558792 0.076756
vt 0.561877 0.077291
vt 0.493939 0.077761
vt 0.555697 0.077761
vt 0.547853 0.084228
vt 0.547853 0.077964
vt 0.551602 0.079507
vt 0.551602 0.084228
vt 0.481983 0.083509
vt 0.481983 0.080662
vt 0.546903 0.078901
vt 0.554206 0.078901
vt 0.554206 0.081328
vt 0.478130 0.080302
vt 0.478130 0.085351
vt 0.537060 0.073895
vt 0.536771 0.079933
vt 0.562050 0.079933
vt 0.562050 0.073895
vt 0.533263 0.083703
vt 0.530267 0.083703
vt 0.530267 0.079296
vt 0.533263 0.079296
vt 0.537060 0.073895
vt 0.536771 0.079933
vt 0.495077 0.079933
vt 0.495841 0.073895
vt 0.542720 0.084072
vt 0.542720 0.078780
vt 0.550441 0.078780
vt 0.550441 0.084072
vt 0.551955 0.076986
vt 0.551955 0.083474
vt 0.521841 0.083474
vt 0.521841 0.076986
vt 0.539832 0.083703
vt 0.539832 0.079296
vt 0.554104 0.079296
vt 0.554104 0.083703
vt 0.562050 0.073895
vt 0.562050 0.079933
vt 0.495841 0.073895
vt 0.495077 0.079933
vt 0.538758 0.084514
vt 0.538758 0.078753
vt 0.553850 0.078753
vt 0.553850 0.084514
vt 0.561788 0.061990
vt 0.540997 0.062175
vt 0.550448 0.032319
vt 0.571340 0.034326
vt 0.540997 0.062175
vt 0.561788 0.061990
vt 0.571340 0.034326
vt 0.550448 0.032319
vt 0.525281 0.084218
vt 0.525257 0.078526
vt 0.545327 0.078443
vt 0.545351 0.084135
vt 0.515593 0.084259
vt 0.515569 0.078567
vt 0.518756 0.078554
vt 0.518779 0.084245
vt 0.559031 0.068196
vt 0.538766 0.069224
vt 0.538766 0.069224
vt 0.559031 0.068196
vt 0.536463 0.079296
vt 0.536463 0.083703
vt 0.537063 0.063468
vt 0.537063 0.063468
vt 0.522627 0.084229
vt 0.522603 0.078538
vt 0.564204 0.070008
vt 0.565625 0.073215
vt 0.568545 0.072244
vt 0.568387 0.070531
vt 0.549865 0.081904
vt 0.549865 0.084204
vt 0.544853 0.084204
vt 0.544853 0.081904
vt 0.568387 0.070531
vt 0.568545 0.072244
vt 0.565625 0.073215
vt 0.564204 0.070008
vt 0.561407 0.066463
vt 0.562141 0.074047
vt 0.554405 0.080345
vt 0.554405 0.083777
vt 0.550546 0.083777
vt 0.550546 0.080345
vt 0.549790 0.079767
vt 0.549790 0.083430
vt 0.546783 0.083430
vt 0.546783 0.079767
vt 0.546412 0.083777
vt 0.546412 0.080345
vt 0.543283 0.083430
vt 0.543283 0.079767
vt 0.562141 0.074047
vt 0.561407 0.066463
vt 0.559067 0.064709
vt 0.559936 0.073923
vt 0.541124 0.083430
vt 0.541124 0.079767
vt 0.559936 0.073923
vt 0.559067 0.064709
vt 0.551755 0.079080
vt 0.551755 0.083894
vt 0.546279 0.083894
vt 0.546279 0.079080
vt 0.539093 0.083777
vt 0.539093 0.080345
vt 0.563937 0.061367
vt 0.560785 0.058675
vt 0.560785 0.058675
vt 0.563937 0.061367
vt 0.554247 0.082307
vt 0.553772 0.085496
vt 0.539500 0.085010
vt 0.537645 0.082307
vt 0.546267 0.078747
vt 0.546267 0.082775
vt 0.541259 0.082775
vt 0.541259 0.078747
vt 0.554247 0.079001
vt 0.552392 0.081704
vt 0.538119 0.082191
vt 0.537645 0.079001
vt 0.553484 0.084833
vt 0.549521 0.084833
vt 0.549521 0.079825
vt 0.553484 0.079825
vt 0.553563 0.079090
vt 0.549952 0.083220
vt 0.554376 0.083688
vt 0.554938 0.082930
vt 0.555165 0.079265
vt 0.555165 0.084584
vt 0.536528 0.084584
vt 0.536528 0.079265
vt 0.555656 0.085049
vt 0.556465 0.084065
vt 0.554980 0.082897
vt 0.554419 0.083658
vt 0.549995 0.083202
vt 0.553593 0.079062
vt 0.547037 0.081516
vt 0.549136 0.081516
vt 0.549136 0.084412
vt 0.547037 0.084412
vt 0.542154 0.081062
vt 0.544252 0.081062
vt 0.544252 0.084220
vt 0.542154 0.084220
vt 0.544252 0.079736
vt 0.542154 0.079736
vt 0.542154 0.078552
vt 0.544252 0.078552
vt 0.556510 0.084028
vt 0.555704 0.085014
vt 0.547037 0.080166
vt 0.549136 0.080166
vt 0.557296 0.084748
vt 0.557342 0.084709
vt 0.547037 0.079402
vt 0.549136 0.079402
vt 0.497001 0.080283
vt 0.509191 0.080283
vt 0.509191 0.083133
vt 0.497001 0.083133
vt 0.475684 0.074307
vt 0.488827 0.074307
vt 0.488827 0.078891
vt 0.475684 0.078891
vt 0.488827 0.078891
vt 0.475684 0.078891
vt 0.475684 0.074307
vt 0.488827 0.074307
vt 0.497001 0.080283
vt 0.509191 0.080283
vt 0.509191 0.083133
vt 0.497001 0.083133
vt 0.548516 0.078362
vt 0.551648 0.080171
vt 0.551648 0.085565
vt 0.548516 0.085595
vt 0.518083 0.067762
vt 0.514993 0.071824
vt 0.523614 0.071824
vt 0.520523 0.067762
vt 0.540377 0.079236
vt 0.544418 0.079236
vt 0.544418 0.084014
vt 0.540377 0.084014
vt 0.520523 0.067762
vt 0.523614 0.071824
vt 0.514993 0.071824
vt 0.518083 0.067762
vt 0.522308 0.083750
vt 0.518313 0.083750
vt 0.518313 0.079027
vt 0.522308 0.079027
vt 0.527079 0.079027
vt 0.527079 0.083750
vt 0.520063 0.061856
vt 0.518735 0.061702
vt 0.522595 0.058096
vt 0.523372 0.059184
vt 0.535686 0.084014
vt 0.535686 0.079236
vt 0.520063 0.061856
vt 0.518735 0.061702
vt 0.531213 0.083750
vt 0.531213 0.079027
vt 0.539439 0.079027
vt 0.539439 0.083750
vt 0.523372 0.059184
vt 0.522595 0.058096
vt 0.532318 0.084014
vt 0.532318 0.079236
vt 0.532526 0.059890
vt 0.533088 0.058677
vt 0.541873 0.058519
vt 0.537437 0.066443
vt 0.525048 0.084014
vt 0.525048 0.079236
vt 0.532526 0.059890
vt 0.533088 0.058677
vt 0.537437 0.066443
vt 0.541873 0.058518
vt 0.546316 0.079027
vt 0.546316 0.083750
vt 0.518563 0.084014
vt 0.518563 0.079236
vt 0.521714 0.078276
vt 0.518389 0.078952
vt 0.518389 0.073567
vt 0.521774 0.073567
vt 0.527198 0.073567
vt 0.530583 0.073567
vt 0.530583 0.078952
vt 0.527258 0.078276
vt 0.525198 0.081121
vt 0.525198 0.084513
vt 0.523774 0.084513
vt 0.523774 0.081121
vt 0.523774 0.073567
vt 0.525198 0.073567
vt 0.525198 0.078952
vt 0.523774 0.078952
vt 0.554206 0.083755
vt 0.548044 0.083947
vt 0.542747 0.080875
vt 0.550375 0.080875
vt 0.543390 0.080834
vt 0.551018 0.080834
vt 0.545721 0.083906
vt 0.546463 0.083818
vt 0.542606 0.083818
vt 0.542606 0.082107
vt 0.546463 0.082107
vt 0.493383 0.080662
vt 0.493383 0.083509
vt 0.481983 0.083509
vt 0.481983 0.080662
vt 0.536483 0.083818
vt 0.536483 0.082107
vt 0.544103 0.084228
vt 0.544103 0.079507
vt 0.561879 0.077287
vt 0.561540 0.079244
vt 0.553264 0.080662
vt 0.553264 0.083509
vt 0.506445 0.083755
vt 0.547103 0.081317
vt 0.548159 0.079067
vt 0.548791 0.079067
vt 0.549846 0.081317
vt 0.544925 0.081107
vt 0.547410 0.081107
vt 0.547410 0.083850
vt 0.544925 0.083850
vt 0.549846 0.081412
vt 0.548791 0.083663
vt 0.548159 0.083663
vt 0.547103 0.081412
vt 0.550527 0.083850
vt 0.548042 0.083850
vt 0.548042 0.081107
vt 0.550527 0.081107
vt 0.550932 0.079505
vt 0.550932 0.083079
vt 0.545879 0.083079
vt 0.545879 0.079505
vt 0.540825 0.083079
vt 0.540825 0.079505
vt 0.551116 0.079315
vt 0.551116 0.082888
vt 0.546063 0.082888
vt 0.546063 0.079315
vt 0.541009 0.082888
vt 0.541009 0.079315
vt 0.529369 0.066202
vt 0.525363 0.066202
vt 0.525363 0.062196
vt 0.529369 0.062196
vt 0.560791 0.083641
vt 0.545384 0.080171
vt 0.545384 0.085565
vn -1.0000 0.0000 0.0000
vn 0.0849 0.4127 -0.9069
vn 1.0000 0.0000 0.0000
vn 0.0000 -1.0000 0.0000
vn -0.3805 0.9248 0.0000
vn 0.0000 -0.8273 0.5618
vn 0.0000 0.0000 -1.0000
vn 0.0000 0.0000 1.0000
vn 0.0000 -0.1254 0.9921
vn 0.0000 0.4060 -0.9139
vn 0.0000 -0.9894 -0.1454
vn -0.0000 -0.3018 0.9534
vn -0.0000 -0.3432 0.9393
vn -0.0000 -0.4681 -0.8837
vn -0.0000 -0.9501 0.3121
vn -0.0000 0.2837 0.9589
vn 0.0000 -0.0996 -0.9950
vn 0.0000 -0.9932 -0.1161
vn 0.0000 0.9464 -0.3231
vn 0.0000 -0.6257 -0.7800
vn 0.0000 0.9707 -0.2402
vn 0.0000 0.9988 0.0483
vn 0.0000 -0.9897 -0.1431
vn 0.0000 0.4421 -0.8970
vn 0.0000 -0.4109 -0.9117
vn 0.0000 0.9218 0.3876
vn 0.0000 0.4897 -0.8719
vn 0.0000 -0.4710 -0.8821
vn 0.0000 0.9992 -0.0409
vn 0.0000 0.9469 -0.3217
vn 0.0000 -0.8809 -0.4734
vn 0.0000 0.7842 0.6205
vn 0.0000 -0.8567 -0.5159
vn 0.5000 -0.8660 0.0000
vn -0.5000 -0.8660 0.0000
vn 0.0000 -0.6055 -0.7959
vn 0.0000 -0.6055 0.7959
vn 0.0000 -0.1070 0.9943
vn 0.0000 -0.0777 -0.9970
vn 0.0000 -0.9985 -0.0553
vn 0.0000 -0.7307 0.6827
vn 0.0000 0.7781 -0.6282
vn 0.0000 0.9970 0.0769
vn 0.0000 -0.9998 0.0180
vn 0.0000 0.5997 0.8002
vn 0.0000 -0.1993 0.9799
vn 0.0000 0.3118 0.9502
vn 0.0000 0.5520 0.8339
vn 0.3805 0.9248 0.0000
vn 0.0000 0.8954 -0.4452
vn 0.0000 0.4247 -0.9053
vn 0.0000 0.4247 0.9053
vn 0.0000 1.0000 0.0000
vn 0.7071 -0.7071 0.0000
vn 0.7071 0.7071 0.0000
vn -0.7071 0.7071 0.0000
vn -0.7071 -0.7071 -0.0000
vn -0.0849 0.4127 -0.9069
usemtl ps1_weapons
s off
f 9/1/1 2/2/1 4/3/1 10/4/1
f 143/5/2 134/6/2 8/7/2 11/8/2
f 11/9/3 8/10/3 6/11/3 12/12/3
f 12/12/3 6/11/3 14/13/3 16/14/3
f 138/15/4 7/16/4 5/17/4 140/18/4
f 134/19/5 4/20/5 2/21/5 141/22/5
f 140/18/6 142/23/6 9/24/6 1/25/6
f 7/26/3 11/9/3 12/12/3 5/27/3
f 138/28/7 143/5/7 11/8/7 7/29/7
f 1/30/1 9/1/1 10/4/1 3/31/1
f 145/32/8 144/33/8 13/34/8 15/35/8
f 141/22/5 2/21/5 13/36/5 144/37/5
f 142/23/4 12/38/4 16/39/4 145/40/4
f 2/2/1 9/1/1 15/41/1 13/42/1
f 25/43/1 26/44/1 20/45/1 19/46/1
f 19/47/7 20/48/7 24/49/7 23/50/7
f 27/51/3 28/52/3 22/53/3 21/54/3
f 21/55/9 22/56/9 18/57/9 17/58/9
f 25/59/4 27/60/4 21/61/4 17/62/4
f 39/63/10 37/64/10 30/65/10 29/66/10
f 23/67/3 24/68/3 28/52/3 27/51/3
f 17/69/1 18/70/1 26/44/1 25/43/1
f 29/71/11 30/72/11 32/73/11 31/74/11
f 37/75/3 38/76/3 32/77/3 30/78/3
f 40/79/1 39/80/1 29/81/1 31/82/1
f 38/83/12 40/84/12 31/85/12 32/86/12
f 27/87/13 25/88/13 36/89/13 35/90/13
f 25/43/1 19/46/1 34/91/1 36/92/1
f 23/67/3 27/51/3 35/93/3 33/94/3
f 19/47/14 23/50/14 33/95/14 34/96/14
f 38/76/3 35/93/3 41/97/3
f 36/92/1 34/91/1 39/80/1 40/79/1
f 33/94/3 35/93/3 38/76/3 37/75/3
f 34/96/10 33/95/10 37/64/10 39/63/10
f 36/92/1 40/79/1 42/98/1
f 40/84/15 38/83/15 41/99/15 42/100/15
f 35/90/16 36/89/16 42/100/16 41/99/16
f 43/101/1 44/102/1 46/103/1 45/104/1
f 45/105/17 46/106/17 50/107/17 49/108/17
f 49/109/3 50/110/3 48/111/3 47/112/3
f 44/102/1 43/101/1 51/113/1 52/114/1
f 45/115/18 49/116/18 47/117/18 43/118/18
f 50/119/19 46/120/19 44/121/19 48/122/19
f 43/118/20 47/117/20 53/123/20 51/124/20
f 48/122/21 44/121/21 52/125/21 54/126/21
f 47/112/3 48/111/3 54/127/3 53/128/3
f 52/114/1 51/113/1 55/129/1 56/130/1
f 54/126/22 52/125/22 56/131/22 58/132/22
f 53/128/3 54/127/3 58/133/3 57/134/3
f 59/135/23 60/136/23 62/137/23 61/138/23
f 51/124/24 53/123/24 60/139/24 59/140/24
f 55/129/1 51/113/1 59/141/1 61/142/1
f 53/128/3 57/134/3 62/143/3 60/144/3
f 63/145/1 64/146/1 66/147/1 65/148/1
f 65/149/25 66/150/25 70/151/25 69/152/25
f 69/153/3 70/154/3 68/155/3 67/156/3
f 67/157/26 68/158/26 64/159/26 63/160/26
f 71/161/1 72/162/1 74/163/1 73/164/1
f 70/165/27 66/166/27 64/167/27 68/168/27
f 73/164/1 74/163/1 80/169/1 79/170/1
f 77/171/3 78/172/3 76/173/3 75/174/3
f 73/175/28 77/176/28 75/177/28 71/178/28
f 78/179/29 74/180/29 72/181/29 76/182/29
f 80/183/30 82/184/30 84/185/30 83/186/30
f 78/172/3 77/171/3 81/187/3 82/188/3
f 77/176/31 73/175/31 79/189/31 81/190/31
f 74/180/32 78/179/32 82/184/32 80/183/32
f 79/170/1 80/169/1 83/191/1
f 82/188/3 81/187/3 84/192/3
f 81/190/33 79/189/33 83/193/33 84/194/33
f 85/195/34 86/196/34 88/197/34 87/198/34
f 87/199/3 88/200/3 90/201/3 89/202/3
f 92/203/1 93/204/1 95/205/1 94/206/1
f 94/207/35 95/208/35 86/209/35 85/210/35
f 85/211/8 87/212/8 89/213/8 91/214/8
f 96/215/1 97/216/1 99/217/1 98/218/1
f 98/219/36 99/220/36 103/221/36 102/222/36
f 102/223/3 103/224/3 101/225/3 100/226/3
f 100/227/37 101/228/37 97/229/37 96/230/37
f 100/227/38 96/230/38 104/231/38 106/232/38
f 107/233/3 106/234/3 110/235/3 111/236/3
f 98/219/39 102/222/39 107/237/39 105/238/39
f 96/215/1 98/218/1 105/239/1 104/240/1
f 102/223/3 100/226/3 106/234/3 107/233/3
f 110/241/40 108/242/40 112/243/40 114/244/40
f 104/240/1 105/239/1 109/245/1 108/246/1
f 106/232/41 104/231/41 108/242/41 110/241/41
f 105/238/42 107/237/42 111/247/42 109/248/42
f 115/249/3 114/250/3 118/251/3 119/252/3
f 109/248/43 111/247/43 115/253/43 113/254/43
f 111/236/3 110/235/3 114/250/3 115/249/3
f 108/246/1 109/245/1 113/255/1 112/256/1
f 112/256/1 113/255/1 117/257/1 116/258/1
f 114/244/44 112/243/44 116/259/44 118/260/44
f 113/254/45 115/253/45 119/261/45 117/262/45
f 128/263/1 121/264/1 123/265/1 129/266/1
f 130/267/3 127/268/3 125/269/3 131/270/3
f 131/271/46 125/272/46 121/273/46 128/274/46
f 122/275/4 126/276/4 124/277/4 120/278/4
f 124/277/47 131/271/47 128/274/47 120/278/47
f 126/276/3 130/267/3 131/270/3 124/277/3
f 120/278/1 128/263/1 129/266/1 122/275/1
f 9/24/4 142/23/4 145/40/4 15/279/4
f 133/280/1 135/281/1 132/282/1
f 136/283/3 139/284/3 137/285/3
f 136/286/48 137/287/48 133/288/48 132/289/48
f 6/290/49 141/291/49 144/292/49 14/293/49
f 139/294/50 135/295/50 133/288/50 137/287/50
f 16/296/8 14/297/8 144/33/8 145/32/8
f 3/298/7 10/299/7 143/5/7 138/28/7
f 5/17/6 12/38/6 142/23/6 140/18/6
f 8/300/49 134/301/49 141/291/49 6/290/49
f 3/302/4 138/15/4 140/18/4 1/25/4
f 146/303/1 147/304/1 149/305/1 148/306/1
f 148/307/51 149/308/51 153/309/51 152/310/51
f 152/311/3 153/312/3 151/313/3 150/314/3
f 150/315/52 151/316/52 147/317/52 146/318/52
f 153/309/53 149/308/53 147/317/53 151/316/53
f 154/319/54 155/320/54 157/321/54 156/322/54
f 156/322/55 157/321/55 159/323/55 158/324/55
f 158/325/56 159/326/56 161/327/56 160/328/56
f 160/328/57 161/327/57 155/329/57 154/330/57
f 154/331/8 156/332/8 158/333/8 160/334/8
f 10/299/58 4/335/58 134/6/58 143/5/58
f 94/336/8 85/211/8 91/214/8 92/337/8
o colt_1911_magazine_Cube.023
v -0.007707 -0.061896 -0.058169
v -0.007707 0.037314 -0.030561
v -0.007707 -0.055252 -0.100441
v -0.007707 0.037314 -0.058317
v 0.007707 -0.061896 -0.058169
v 0.007707 0.037314 -0.030561
v 0.007707 -0.055252 -0.100441
v 0.007707 0.037314 -0.058317
vt 0.540078 0.084201
vt 0.556517 0.084025
vt 0.555284 0.079769
vt 0.539119 0.078615
vt 0.554008 0.081512
vt 0.537431 0.081512
vt 0.537431 0.078999
vt 0.554008 0.078999
vt 0.539119 0.078615
vt 0.555283 0.079770
vt 0.556517 0.084025
vt 0.540078 0.084201
vt 0.554216 0.084077
vt 0.537431 0.084077
vt 0.537431 0.081564
vt 0.554216 0.081564
vt 0.540822 0.084024
vt 0.540822 0.079714
vt 0.552785 0.079714
vt 0.552785 0.084024
vt 0.544075 0.083210
vt 0.544075 0.079513
vt 0.550732 0.079513
vt 0.550732 0.083210
vn -1.0000 0.0000 0.0000
vn 0.0000 0.4142 -0.9102
vn 1.0000 0.0000 0.0000
vn 0.0000 -0.2681 0.9634
vn 0.0000 -0.9879 -0.1553
vn 0.0000 1.0000 0.0000
usemtl ps1_weapons
s off
f 162/338/59 163/339/59 165/340/59 164/341/59
f 164/342/60 165/343/60 169/344/60 168/345/60
f 168/346/61 169/347/61 167/348/61 166/349/61
f 166/350/62 167/351/62 163/352/62 162/353/62
f 164/354/63 168/355/63 166/356/63 162/357/63
f 169/358/64 165/359/64 163/360/64 167/361/64
