# Blender v2.83.16 OBJ File: 'ps1 weapons.blend'
# www.blender.org
mtllib m16.mtl
o m16_Cube
v -0.013032 -0.011104 -0.038775
v -0.013032 0.020305 -0.038775
v -0.013032 -0.023985 -0.112122
v -0.013032 0.007423 -0.112122
v 0.013032 -0.011104 -0.038775
v 0.013032 0.020305 -0.038775
v 0.013032 -0.023985 -0.112122
v 0.013032 0.007423 -0.112122
v -0.013032 0.072221 -0.042304
v -0.013032 0.072221 -0.115650
v 0.013032 0.072221 -0.042304
v 0.013032 0.072221 -0.115650
v -0.013032 0.007423 -0.196771
v 0.013032 0.007423 -0.196771
v -0.013032 0.072221 -0.200299
v 0.013032 0.072221 -0.200299
v -0.013032 0.007423 -0.163647
v 0.013032 0.007423 -0.163647
v -0.013032 0.072221 -0.167176
v 0.013032 0.072221 -0.167176
v -0.013032 -0.078163 -0.249262
v 0.013032 -0.078163 -0.249262
v -0.013032 -0.089878 -0.203714
v 0.013032 -0.089878 -0.203714
v 0.013032 -0.014180 -0.207951
v -0.013032 -0.014180 -0.207951
v 0.013032 -0.024120 -0.165598
v -0.013032 -0.024120 -0.165598
v -0.013032 0.022382 -0.227577
v 0.013032 0.022382 -0.227577
v -0.013032 0.072697 -0.230679
v 0.013032 0.072697 -0.230679
v -0.013032 -0.049876 -0.489272
v 0.013032 -0.049876 -0.489272
v -0.013032 0.071593 -0.500348
v 0.013032 0.071593 -0.500348
v -0.013032 0.038764 -0.028481
v 0.013032 0.038764 -0.028481
v -0.013032 0.072221 -0.029169
v 0.013032 0.072221 -0.029169
v -0.009503 -0.021170 -0.104522
v -0.009503 -0.016859 -0.104743
v -0.009503 -0.025671 -0.179305
v -0.009503 -0.021361 -0.179527
v 0.009503 -0.021170 -0.104522
v 0.009503 -0.016859 -0.104743
v 0.009503 -0.025671 -0.179305
v 0.009503 -0.021361 -0.179527
v -0.004167 -0.003646 -0.143149
v -0.004167 0.009352 -0.140723
v -0.004167 -0.003646 -0.147588
v -0.004167 0.009352 -0.145162
v 0.004167 -0.003646 -0.143149
v 0.004167 0.009352 -0.140723
v 0.004167 -0.003646 -0.147588
v 0.004167 0.009352 -0.145162
v -0.004167 -0.016628 -0.138013
v 0.004167 -0.016628 -0.138013
v -0.009705 0.061882 -0.031109
v -0.009705 0.085401 -0.031109
v -0.009705 0.061882 -0.163505
v -0.009705 0.085401 -0.163505
v 0.009705 0.061882 -0.031109
v 0.009705 0.085401 -0.031109
v 0.009705 0.061882 -0.163505
v 0.009705 0.085401 -0.163505
v -0.009705 0.061882 -0.037094
v -0.009705 0.085401 -0.037094
v 0.009705 0.061882 -0.037094
v 0.009705 0.085401 -0.037094
v -0.009705 0.061882 -0.216012
v -0.009705 0.085401 -0.207877
v 0.009705 0.061882 -0.216012
v 0.009705 0.085401 -0.207877
v -0.009705 0.113011 -0.031109
v 0.009705 0.113011 -0.031109
v -0.009705 0.110299 -0.034875
v 0.009705 0.110299 -0.034875
v -0.009705 0.125829 -0.145016
v 0.009705 0.125829 -0.145016
v -0.009705 0.125829 -0.189388
v 0.009705 0.125829 -0.189388
v -0.009705 0.113386 -0.150707
v -0.009705 0.113386 -0.195079
v 0.009705 0.113386 -0.195079
v 0.009705 0.113386 -0.150707
v -0.000000 0.057684 0.287598
v -0.000000 0.057684 -0.004160
v -0.007203 0.121744 0.332501
v -0.002841 0.061167 0.332501
v -0.000000 0.050222 -0.043152
v 0.007855 0.058077 -0.043152
v -0.000000 0.058077 0.495736
v -0.000000 0.065932 -0.043152
v -0.007855 0.058077 -0.043152
v -0.002841 0.061167 0.286222
v -0.007203 0.121744 0.325171
v 0.002841 0.061167 0.332501
v 0.007203 0.121744 0.332501
v 0.002841 0.061167 0.286222
v 0.007203 0.121744 0.325171
v 0.002841 0.075218 0.285693
v -0.002841 0.075218 0.285693
v -0.002841 0.075218 0.332501
v 0.002841 0.075218 0.332501
v -0.000000 0.043323 0.010221
v 0.013205 0.050947 0.010221
v 0.013205 0.066195 0.010221
v -0.000000 0.073819 0.010221
v -0.013205 0.066195 0.010221
v 0.000000 0.058571 -0.029194
v -0.013205 0.050947 0.010221
v -0.000000 0.035370 0.287598
v 0.019325 0.046527 0.287598
v 0.019325 0.068841 0.287598
v -0.000000 0.079998 0.287598
v -0.019325 0.068841 0.287598
v -0.019325 0.046527 0.287598
v 0.026915 0.042144 -0.004160
v -0.000000 0.026605 -0.004160
v 0.026915 0.073223 -0.004160
v -0.000000 0.088763 -0.004160
v -0.026915 0.073223 -0.004160
v -0.026915 0.042144 -0.004160
v -0.000000 0.050222 0.495736
v 0.007855 0.058077 0.495736
v -0.000000 0.065932 0.495736
v -0.007855 0.058077 0.495736
v 0.020796 0.046565 -0.029194
v 0.000000 0.034558 -0.029194
v 0.020796 0.070578 -0.029194
v -0.000000 0.082584 -0.029194
v -0.020796 0.070578 -0.029194
v -0.020796 0.046565 -0.029194
v -0.002841 0.109865 0.332501
v 0.002841 0.109865 0.315092
v -0.002841 0.109865 0.315092
v 0.002841 0.109865 0.332501
v -0.022792 0.072442 -0.212803
v -0.022792 0.087869 -0.212803
v -0.022792 0.072442 -0.219440
v -0.022792 0.087869 -0.219440
v 0.022792 0.072442 -0.212803
v 0.022792 0.087869 -0.212803
v 0.022792 0.072442 -0.219440
v 0.022792 0.087869 -0.219440
v 0.004907 0.072442 -0.219440
v -0.004907 0.072442 -0.219440
v -0.004907 0.087869 -0.219440
v 0.004907 0.087869 -0.219440
v -0.004907 0.072442 -0.212803
v 0.004907 0.072442 -0.212803
v 0.004907 0.087869 -0.212803
v -0.004907 0.087869 -0.212803
v -0.004907 0.072442 -0.197407
v 0.004907 0.072442 -0.197407
v 0.004907 0.087869 -0.197407
v -0.004907 0.087869 -0.197407
vt 0.712633 0.343798
vt 0.712663 0.356610
vt 0.742569 0.351285
vt 0.742539 0.338473
vt 0.757712 0.363533
vt 0.757712 0.354416
vt 0.765277 0.354416
vt 0.765277 0.363533
vt 0.742539 0.338473
vt 0.742569 0.351285
vt 0.712663 0.356610
vt 0.712633 0.343798
vt 0.730925 0.344465
vt 0.730925 0.356556
vt 0.720891 0.356556
vt 0.720891 0.344465
vt 0.770577 0.360585
vt 0.770577 0.366983
vt 0.752296 0.366983
vt 0.752296 0.360585
vt 0.788186 0.332459
vt 0.783054 0.329079
vt 0.792932 0.314083
vt 0.798064 0.317463
vt 0.744967 0.367648
vt 0.744967 0.376875
vt 0.719002 0.376875
vt 0.719002 0.367648
vt 0.744071 0.377713
vt 0.714152 0.377784
vt 0.714152 0.377784
vt 0.744071 0.377713
vt 0.710107 0.364149
vt 0.710420 0.377796
vt 0.783051 0.351203
vt 0.784553 0.377632
vt 0.800517 0.377796
vt 0.799203 0.357275
vt 0.769540 0.351235
vt 0.771041 0.377663
vt 0.771041 0.377663
vt 0.769540 0.351235
vt 0.783051 0.351203
vt 0.784553 0.377632
vt 0.763208 0.376875
vt 0.763208 0.367648
vt 0.774934 0.367648
vt 0.774934 0.376875
vt 0.753604 0.364290
vt 0.753604 0.356725
vt 0.768559 0.356725
vt 0.768559 0.364290
vt 0.794367 0.307295
vt 0.800105 0.307295
vt 0.800105 0.317649
vt 0.794367 0.317649
vt 0.789824 0.335268
vt 0.780194 0.332524
vt 0.796168 0.310733
vt 0.806860 0.314225
vt 0.780194 0.332524
vt 0.789824 0.335268
vt 0.806860 0.314225
vt 0.796168 0.310733
vt 0.788018 0.334536
vt 0.780800 0.329305
vt 0.796055 0.308254
vt 0.803274 0.313486
vt 0.786450 0.340516
vt 0.778885 0.340516
vt 0.778885 0.331343
vt 0.786450 0.331343
vt 0.778304 0.343599
vt 0.785051 0.342478
vt 0.785051 0.342478
vt 0.778304 0.343599
vt 0.786026 0.340343
vt 0.778461 0.340343
vt 0.778461 0.333283
vt 0.786026 0.333283
vt 0.805155 0.377823
vt 0.803847 0.358973
vt 0.899897 0.332708
vt 0.903773 0.378518
vt 0.759092 0.356837
vt 0.766658 0.356837
vt 0.766658 0.366777
vt 0.759092 0.366777
vt 0.799203 0.357275
vt 0.800517 0.377796
vt 0.785689 0.367648
vt 0.785689 0.376875
vt 0.916278 0.330737
vt 0.924619 0.330737
vt 0.924619 0.369770
vt 0.916278 0.369770
vt 0.904794 0.366471
vt 0.904794 0.373441
vt 0.832681 0.373440
vt 0.832681 0.366471
vt 0.803847 0.358973
vt 0.805155 0.377823
vt 0.903773 0.378518
vt 0.899897 0.332708
vt 0.837832 0.364461
vt 0.835874 0.357772
vt 0.905548 0.337373
vt 0.907506 0.344062
vt 0.720891 0.364693
vt 0.730925 0.364693
vt 0.730925 0.377575
vt 0.720891 0.377575
vt 0.714353 0.376875
vt 0.714353 0.367648
vt 0.710420 0.377796
vt 0.710107 0.364149
vt 0.765594 0.366667
vt 0.764434 0.366674
vt 0.764434 0.354145
vt 0.765594 0.354138
vt 0.766858 0.366674
vt 0.765698 0.366667
vt 0.765698 0.354138
vt 0.766858 0.354145
vt 0.758584 0.366667
vt 0.753477 0.366667
vt 0.753477 0.354138
vt 0.758584 0.354138
vt 0.764152 0.366667
vt 0.759044 0.366667
vt 0.759044 0.354138
vt 0.764152 0.354138
vt 0.760884 0.359486
vt 0.762492 0.366219
vt 0.760604 0.366464
vt 0.758996 0.359731
vt 0.762810 0.357102
vt 0.762810 0.352311
vt 0.766373 0.352311
vt 0.766373 0.357102
vt 0.755185 0.359078
vt 0.756794 0.352345
vt 0.758681 0.352590
vt 0.757073 0.359323
vt 0.751304 0.359082
vt 0.751304 0.352334
vt 0.754868 0.352334
vt 0.754868 0.359082
vt 0.762492 0.352345
vt 0.758681 0.366464
vt 0.754868 0.366208
vt 0.751304 0.366208
vt 0.766373 0.365670
vt 0.762810 0.365670
vt 0.709076 0.376482
vt 0.709076 0.386738
vt 0.772139 0.386738
vt 0.772139 0.376482
vt 0.791490 0.386738
vt 0.795037 0.376482
vt 0.709076 0.376482
vt 0.709076 0.386738
vt 0.706466 0.386738
vt 0.706466 0.376482
vt 0.760783 0.354506
vt 0.760783 0.358550
vt 0.757445 0.358550
vt 0.757445 0.354506
vt 0.722057 0.342798
vt 0.724667 0.342798
vt 0.725700 0.357156
vt 0.724057 0.358339
vt 0.733796 0.366907
vt 0.733796 0.370391
vt 0.711108 0.370391
vt 0.711108 0.366907
vt 0.772139 0.376482
vt 0.772139 0.386738
vt 0.706466 0.376482
vt 0.706466 0.386738
vt 0.782988 0.379004
vt 0.782988 0.387640
vt 0.776252 0.387640
vt 0.776252 0.379004
vt 0.795037 0.376482
vt 0.791490 0.386738
vt 0.785909 0.398942
vt 0.766558 0.398942
vt 0.764077 0.404369
vt 0.783427 0.404369
vt 0.714091 0.370969
vt 0.714091 0.367485
vt 0.734888 0.367485
vt 0.734888 0.370969
vt 0.724667 0.342798
vt 0.722057 0.342798
vt 0.724057 0.358339
vt 0.725700 0.357156
vt 0.760783 0.363297
vt 0.757445 0.363297
vt 0.739374 0.367485
vt 0.739374 0.370969
vt 0.725017 0.380758
vt 0.725017 0.384095
vt 0.717388 0.384095
vt 0.717388 0.380758
vt 0.776252 0.398318
vt 0.782988 0.398318
vt 0.782988 0.403067
vt 0.776252 0.403067
vt 0.766558 0.398942
vt 0.785909 0.398942
vt 0.783427 0.404369
vt 0.764077 0.404369
vt 0.744726 0.380758
vt 0.744726 0.384095
vt 0.779668 0.360429
vt 0.782150 0.355002
vt 0.739319 0.366907
vt 0.739319 0.370391
vt 0.782150 0.355002
vt 0.779668 0.360429
vt 0.556231 0.360875
vt 0.691423 0.360849
vt 0.691693 0.368847
vt 0.556484 0.370276
vt 0.691693 0.378979
vt 0.556484 0.377550
vt 0.691389 0.389106
vt 0.556265 0.384821
vt 0.691693 0.378979
vt 0.556484 0.377550
vt 0.691693 0.368847
vt 0.556484 0.370276
vt 0.727689 0.359068
vt 0.727689 0.356306
vt 0.729246 0.356306
vt 0.729246 0.359068
vt 0.720928 0.353298
vt 0.718788 0.355658
vt 0.717231 0.355658
vt 0.717231 0.353298
vt 0.457749 0.370626
vt 0.601662 0.370625
vt 0.601662 0.373592
vt 0.457749 0.373592
vt 0.740726 0.344023
vt 0.740726 0.346717
vt 0.739519 0.346717
vt 0.739519 0.344023
vt 0.739519 0.358874
vt 0.738593 0.356671
vt 0.741653 0.356671
vt 0.740726 0.358874
vt 0.601662 0.376558
vt 0.457749 0.376558
vt 0.728067 0.346383
vt 0.728067 0.344024
vt 0.729624 0.344024
vt 0.731764 0.346383
vt 0.601662 0.373592
vt 0.457749 0.373592
vt 0.740726 0.353361
vt 0.741653 0.355639
vt 0.738593 0.355639
vt 0.739519 0.353361
vt 0.728067 0.355658
vt 0.728067 0.352982
vt 0.738008 0.352982
vt 0.737896 0.355658
vt 0.739519 0.367997
vt 0.739519 0.365301
vt 0.740726 0.365301
vt 0.740726 0.367997
vt 0.727060 0.344024
vt 0.727172 0.346700
vt 0.717231 0.346700
vt 0.717231 0.344024
vt 0.687699 0.366490
vt 0.699984 0.362333
vt 0.701649 0.369864
vt 0.688756 0.371272
vt 0.701649 0.377578
vt 0.688756 0.376170
vt 0.699984 0.385109
vt 0.687699 0.380952
vt 0.701649 0.377578
vt 0.688756 0.376170
vt 0.701649 0.369864
vt 0.688756 0.371272
vt 0.760824 0.360621
vt 0.753642 0.364768
vt 0.753642 0.356475
vt 0.760824 0.352328
vt 0.768006 0.356475
vt 0.768006 0.364768
vt 0.760824 0.368914
vt 0.726988 0.355322
vt 0.739483 0.348107
vt 0.739483 0.362536
vt 0.726988 0.340893
vt 0.714492 0.348107
vt 0.714492 0.362536
vt 0.726988 0.369750
vt 0.466529 0.410325
vt 0.469741 0.413536
vt 0.463318 0.413536
vt 0.463318 0.407114
vt 0.469741 0.407114
vt 0.699225 0.377712
vt 0.696171 0.375949
vt 0.699225 0.374185
vt 0.696171 0.379476
vt 0.699225 0.381239
vt 0.702280 0.379476
vt 0.702280 0.375949
vt 0.766232 0.362673
vt 0.766232 0.359392
vt 0.767429 0.359392
vt 0.767429 0.362673
vt 0.763271 0.358580
vt 0.766053 0.358580
vt 0.766053 0.362384
vt 0.763271 0.362384
vt 0.766232 0.355681
vt 0.766232 0.352400
vt 0.767429 0.352400
vt 0.767429 0.355681
vt 0.755907 0.362992
vt 0.758689 0.362992
vt 0.758689 0.366796
vt 0.755907 0.366796
vt 0.754662 0.356493
vt 0.754662 0.352689
vt 0.755859 0.352689
vt 0.755859 0.356493
vt 0.758993 0.356493
vt 0.758993 0.352689
vt 0.760190 0.352689
vt 0.760190 0.356493
vt 0.758993 0.362384
vt 0.758993 0.358580
vt 0.760190 0.358580
vt 0.760190 0.362384
vt 0.754662 0.362384
vt 0.754662 0.358580
vt 0.755859 0.358580
vt 0.755859 0.362384
vt 0.758940 0.362992
vt 0.761722 0.362992
vt 0.761722 0.366796
vt 0.758940 0.366796
vt 0.762967 0.356493
vt 0.762967 0.358580
vt 0.763271 0.352689
vt 0.766053 0.352689
vt 0.766053 0.356493
vt 0.763271 0.356493
vt 0.758636 0.356493
vt 0.758636 0.358580
vt 0.769073 0.362968
vt 0.769073 0.366250
vt 0.766297 0.366250
vt 0.766297 0.362968
vt 0.766047 0.362968
vt 0.766047 0.366250
vt 0.763270 0.366250
vt 0.763270 0.362968
vn -1.0000 0.0000 0.0000
vn 0.0000 0.0000 -1.0000
vn 1.0000 0.0000 0.0000
vn 0.0000 0.0000 1.0000
vn 0.0000 -0.9849 0.1730
vn 0.0000 0.5424 -0.8401
vn 0.0000 1.0000 0.0000
vn 0.0000 -1.0000 0.0000
vn 0.0000 -0.9685 -0.2491
vn 0.0000 -0.5015 0.8652
vn 0.0000 -0.0617 0.9981
vn 0.0000 0.4596 -0.8881
vn 0.0000 -0.8996 -0.4368
vn 0.0000 0.9999 0.0157
vn 0.0000 -0.0908 -0.9959
vn 0.0000 1.0000 -0.0041
vn 0.0000 -0.9639 0.2662
vn 0.0000 0.0206 0.9998
vn 0.0000 -0.4871 0.8734
vn 0.0000 -0.9982 0.0601
vn 0.0000 0.9982 -0.0601
vn 0.0000 0.1834 -0.9830
vn 0.0000 -0.1834 0.9830
vn 0.0000 0.3679 0.9299
vn 0.0000 -0.5936 -0.8048
vn 0.0000 0.3269 -0.9451
vn 0.0000 -0.9996 -0.0266
vn 0.0000 0.0888 -0.9961
vn 0.0000 0.4159 -0.9094
vn 0.0000 0.9937 0.1118
vn 0.0000 -0.4159 0.9094
vn 0.4998 -0.8657 0.0260
vn 0.9997 0.0000 0.0260
vn 0.4998 0.8657 0.0260
vn -0.4998 0.8657 0.0260
vn -0.9997 0.0000 0.0260
vn -0.4998 -0.8657 0.0260
vn 0.9387 -0.3447 0.0000
vn 0.7071 -0.7071 0.0000
vn 0.0000 0.6470 -0.7625
vn 0.7071 0.7071 0.0000
vn -0.9387 -0.3447 0.0000
vn -0.7071 0.7071 0.0000
vn -0.7071 -0.7071 0.0000
vn 0.0000 -0.0376 -0.9993
vn 0.4910 -0.8504 0.1891
vn 0.9820 0.0000 0.1891
vn 0.4910 0.8504 0.1891
vn -0.4910 0.8504 0.1891
vn -0.9820 0.0000 0.1891
vn -0.4910 -0.8504 0.1891
usemtl ps1_weapons
s off
f 1/1/1 2/2/1 4/3/1 3/4/1
f 3/5/2 4/6/2 8/7/2 7/8/2
f 7/9/3 8/10/3 6/11/3 5/12/3
f 5/13/4 6/14/4 2/15/4 1/16/4
f 3/17/5 7/18/5 5/19/5 1/20/5
f 26/21/6 25/22/6 22/23/6 21/24/6
f 12/25/7 10/26/7 9/27/7 11/28/7
f 6/11/3 8/10/3 12/29/3 11/30/3
f 4/3/1 2/2/1 9/31/1 10/32/1
f 9/31/1 2/2/1 37/33/1 39/34/1
f 13/35/1 15/36/1 31/37/1 29/38/1
f 17/39/1 19/40/1 15/36/1 13/35/1
f 20/41/3 18/42/3 14/43/3 16/44/3
f 19/45/7 20/46/7 16/47/7 15/48/7
f 10/26/7 12/25/7 20/46/7 19/45/7
f 12/29/3 8/10/3 18/42/3 20/41/3
f 4/3/1 10/32/1 19/40/1 17/39/1
f 8/49/8 4/50/8 17/51/8 18/52/8
f 24/53/9 23/54/9 21/55/9 22/56/9
f 25/57/3 27/58/3 24/59/3 22/60/3
f 28/61/1 26/62/1 21/63/1 23/64/1
f 27/65/10 28/66/10 23/67/10 24/68/10
f 18/69/11 17/70/11 28/71/11 27/72/11
f 17/73/1 13/74/1 26/62/1 28/61/1
f 14/75/3 18/76/3 27/58/3 25/57/3
f 13/77/12 14/78/12 25/79/12 26/80/12
f 32/81/3 30/82/3 34/83/3 36/84/3
f 14/85/13 13/86/13 29/87/13 30/88/13
f 16/44/3 14/43/3 30/89/3 32/90/3
f 15/48/14 16/47/14 32/91/14 31/92/14
f 34/93/15 33/94/15 35/95/15 36/96/15
f 31/97/16 32/98/16 36/99/16 35/100/16
f 29/101/1 31/102/1 35/103/1 33/104/1
f 30/105/17 29/106/17 33/107/17 34/108/17
f 37/109/18 38/110/18 40/111/18 39/112/18
f 11/28/7 9/27/7 39/113/7 40/114/7
f 2/15/19 6/14/19 38/110/19 37/109/19
f 6/11/3 11/30/3 40/115/3 38/116/3
f 41/117/1 42/118/1 44/119/1 43/120/1
f 47/121/3 48/122/3 46/123/3 45/124/3
f 43/125/20 47/126/20 45/127/20 41/128/20
f 48/129/21 44/130/21 42/131/21 46/132/21
f 49/133/1 50/134/1 52/135/1 51/136/1
f 51/137/22 52/138/22 56/139/22 55/140/22
f 55/141/3 56/142/3 54/143/3 53/144/3
f 53/145/23 54/146/23 50/147/23 49/148/23
f 49/133/1 51/136/1 57/149/1
f 55/141/3 53/144/3 58/150/3
f 53/145/24 49/148/24 57/151/24 58/152/24
f 51/137/25 55/140/25 58/153/25 57/154/25
f 67/155/1 68/156/1 62/157/1 61/158/1
f 61/158/1 62/157/1 72/159/1 71/160/1
f 69/161/3 70/162/3 64/163/3 63/164/3
f 63/165/4 64/166/4 60/167/4 59/168/4
f 64/169/3 70/170/3 78/171/3 76/172/3
f 66/173/7 62/174/7 68/175/7 70/176/7
f 65/177/3 66/178/3 70/162/3 69/161/3
f 59/179/1 60/180/1 68/156/1 67/155/1
f 71/181/26 72/182/26 74/183/26 73/184/26
f 66/178/3 65/177/3 73/185/3 74/186/3
f 84/187/1 83/188/1 79/189/1 81/190/1
f 83/191/27 86/192/27 78/193/27 77/194/27
f 68/195/1 60/196/1 75/197/1 77/198/1
f 60/167/4 64/166/4 76/199/4 75/200/4
f 70/201/28 68/202/28 77/194/28 78/193/28
f 79/203/7 80/204/7 82/205/7 81/206/7
f 85/207/29 84/208/29 81/209/29 82/210/29
f 86/211/3 85/212/3 82/213/3 80/214/3
f 80/204/30 79/203/30 75/215/30 76/216/30
f 79/217/1 83/218/1 77/198/1 75/197/1
f 66/178/3 74/186/3 85/212/3 86/211/3
f 62/174/31 66/173/31 86/219/31 83/220/31
f 74/183/29 72/182/29 84/208/29 85/207/29
f 72/159/1 62/157/1 83/188/1 84/187/1
f 86/221/3 80/222/3 76/172/3 78/171/3
f 113/223/32 120/224/32 119/225/32 114/226/32
f 114/226/33 119/225/33 121/227/33 115/228/33
f 115/228/34 121/227/34 122/229/34 116/230/34
f 116/230/35 122/229/35 123/231/35 117/232/35
f 117/232/36 123/231/36 124/233/36 118/234/36
f 118/234/37 124/233/37 120/224/37 113/223/37
f 101/235/7 97/236/7 89/237/7 99/238/7
f 136/239/38 101/240/38 99/241/38 138/242/38
f 125/243/39 91/244/39 92/245/39 126/246/39
f 98/247/4 105/248/4 104/249/4 90/250/4
f 137/251/40 97/252/40 101/253/40 136/254/40
f 126/246/41 92/245/41 94/255/41 127/256/41
f 135/257/42 89/258/42 97/259/42 137/260/42
f 127/256/43 94/255/43 95/261/43 128/262/43
f 138/263/4 99/264/4 89/265/4 135/266/4
f 128/262/44 95/261/44 91/244/44 125/243/44
f 90/267/1 104/268/1 103/269/1 96/270/1
f 96/271/45 103/272/45 102/273/45 100/274/45
f 100/275/3 102/276/3 105/277/3 98/278/3
f 106/279/46 130/280/46 129/281/46 107/282/46
f 107/282/47 129/281/47 131/283/47 108/284/47
f 108/284/48 131/283/48 132/285/48 109/286/48
f 109/286/49 132/285/49 133/287/49 110/288/49
f 110/288/50 133/287/50 134/289/50 112/290/50
f 112/290/51 134/289/51 130/280/51 106/279/51
f 87/291/4 113/292/4 114/293/4
f 87/291/4 114/293/4 115/294/4
f 87/291/4 115/294/4 116/295/4
f 87/291/4 116/295/4 117/296/4
f 87/291/4 117/296/4 118/297/4
f 87/291/4 118/297/4 113/292/4
f 88/298/2 119/299/2 120/300/2
f 88/298/2 121/301/2 119/299/2
f 88/298/2 122/302/2 121/301/2
f 88/298/2 123/303/2 122/302/2
f 88/298/2 124/304/2 123/303/2
f 88/298/2 120/300/2 124/304/2
f 93/305/4 125/306/4 126/307/4
f 93/305/4 126/307/4 127/308/4
f 93/305/4 127/308/4 128/309/4
f 93/305/4 128/309/4 125/306/4
f 111/310/2 129/311/2 130/312/2
f 111/310/2 131/313/2 129/311/2
f 111/310/2 132/314/2 131/313/2
f 111/310/2 133/315/2 132/314/2
f 111/310/2 134/316/2 133/315/2
f 111/310/2 130/312/2 134/316/2
f 105/248/4 138/263/4 135/266/4 104/249/4
f 104/268/1 135/257/1 137/260/1 103/269/1
f 103/272/40 137/251/40 136/254/40 102/273/40
f 102/276/3 136/239/3 138/242/3 105/277/3
f 139/317/1 140/318/1 142/319/1 141/320/1
f 147/321/2 150/322/2 146/323/2 145/324/2
f 145/325/3 146/326/3 144/327/3 143/328/3
f 151/329/4 154/330/4 140/331/4 139/332/4
f 147/333/8 145/334/8 143/335/8 152/336/8
f 149/337/7 142/338/7 140/339/7 154/340/7
f 146/341/7 150/342/7 153/343/7 144/344/7
f 150/342/7 149/337/7 154/340/7 153/343/7
f 141/345/8 148/346/8 151/347/8 139/348/8
f 148/346/8 147/333/8 152/336/8 151/347/8
f 143/349/4 144/350/4 153/351/4 152/352/4
f 153/343/7 154/340/7 158/353/7 157/354/7
f 141/355/2 142/356/2 149/357/2 148/358/2
f 148/358/2 149/357/2 150/322/2 147/321/2
f 151/347/8 152/336/8 156/359/8 155/360/8
f 152/361/3 153/362/3 157/363/3 156/364/3
f 154/365/1 151/366/1 155/367/1 158/368/1
o m16_magazine_Cube.029
v -0.010675 -0.051493 -0.040122
v -0.010675 -0.009143 -0.041683
v -0.010675 -0.062845 -0.100144
v -0.010675 -0.014566 -0.102527
v 0.010675 -0.051493 -0.040122
v 0.010675 -0.009143 -0.041683
v 0.010675 -0.062845 -0.100144
v 0.010675 -0.014566 -0.102527
v -0.010675 -0.106669 -0.024707
v -0.010675 -0.124597 -0.083103
v 0.010675 -0.106669 -0.024707
v 0.010675 -0.124597 -0.083103
vt 0.712354 0.319142
vt 0.712602 0.337145
vt 0.738498 0.335438
vt 0.737959 0.314909
vt 0.721654 0.305393
vt 0.721654 0.292312
vt 0.728244 0.292312
vt 0.728244 0.305393
vt 0.737959 0.314909
vt 0.738498 0.335438
vt 0.712602 0.337145
vt 0.712354 0.319142
vt 0.721043 0.318085
vt 0.721043 0.333005
vt 0.727633 0.333005
vt 0.727633 0.318085
vt 0.727633 0.298312
vt 0.721043 0.298312
vt 0.715150 0.313137
vt 0.715150 0.307594
vt 0.731009 0.307594
vt 0.731009 0.313137
vt 0.731327 0.288513
vt 0.706347 0.295555
vt 0.706347 0.295555
vt 0.731327 0.288513
vt 0.728244 0.323076
vt 0.721654 0.323076
vt 0.717445 0.327509
vt 0.717445 0.321221
vt 0.735434 0.321221
vt 0.735434 0.327509
vn -1.0000 -0.0000 0.0000
vn 0.0000 0.0368 0.9993
vn 1.0000 -0.0000 0.0000
vn 0.0000 -0.0493 -0.9988
vn 0.0000 -0.2660 -0.9640
vn 0.0000 -0.9560 0.2935
vn 0.0000 0.2691 0.9631
vn 0.0000 0.9961 -0.0888
usemtl ps1_weapons
s off
f 159/369/52 160/370/52 162/371/52 161/372/52
f 163/373/53 164/374/53 160/375/53 159/376/53
f 165/377/54 166/378/54 164/379/54 163/380/54
f 161/381/55 162/382/55 166/383/55 165/384/55
f 161/381/56 165/384/56 170/385/56 168/386/56
f 168/387/57 170/388/57 169/389/57 167/390/57
f 159/369/52 161/372/52 168/391/52 167/392/52
f 165/377/54 163/380/54 169/393/54 170/394/54
f 163/373/58 159/376/58 167/395/58 169/396/58
f 160/397/59 164/398/59 166/399/59 162/400/59
